<svg xmlns="http://www.w3.org/2000/svg" version="1.1" style="" viewBox="2.25 75.73 495.95 63.45"><path fill="#0f3c5c" d="M18,82.57l33.93,0l0-6.84l-33.93,0q-6.66,0-11.16,5.22q-4.59,5.31-4.59,12.87q0,6.84,4.59,11.88q4.5,5.13,11.16,5.13l9,0l9.18,0q4.05,0,7.2,3.42q2.97,3.6,2.97,7.83q0,5.04-2.925,8.19t-7.245,3.15l-33.93,0l0,5.58l33.93,0q6.75,0,11.25-4.68t4.5-12.24q0-6.84-4.5-11.88q-4.59-5.04-11.25-5.04l-9.18,0l-9,0q-4.14,0-7.11-3.6q-3.06-3.33-3.06-7.74q0-5.04,2.925-8.145t7.245-3.105z M106.1856,139l9.09,0l-40.23-32.13l40.23-30.96l-9.09,0l-34.56,27.54l0-27.54l-5.67,0l0,63.09l5.67,0l0-27.54z M129.5712,139.09l5.67,0l0-63.27l-5.67,0l0,63.27z M150.8868,139.18l44.01,0l0-4.59l-38.43,0l0-58.59l-5.58,0l0,63.18z M206.2224,139.18l44.01,0l0-4.59l-38.43,0l0-58.59l-5.58,0l0,63.18z M259.938,115.6l26.19,0l0-5.67l-26.19,0l0,5.67z M306.1836,81.49l42.93,0l0-5.58l-48.51,0l0,1.08l0,62.01l5.58,0l0-28.08l22.77,0l0-5.85l-22.77,0l0-23.58z M360.7092,139.09l5.67,0l0-63.27l-5.67,0l0,63.27z M381.4848,139l5.58,0l0-38.16q0-7.56,5.76-13.5q5.76-5.76,13.32-5.76t13.5,5.76q5.76,5.94,5.76,13.5l0,38.16l5.58,0l0-38.16q0-10.26-7.29-17.55t-17.55-7.29q-10.08,0-17.37,7.29t-7.29,17.55l0,38.16z M466.0704,75.91l-13.77,0l-3.42,0l-2.25,0l0,63.09l2.25,0l3.42,0l13.77,0q13.14,0,22.5-9.18q9.63-9.45,9.63-22.95q0-12.78-9.63-21.96q-9.45-9-22.5-9z M466.0704,133.33l-13.77,0l0-51.57l13.77,0q11.25,0,18.9,7.38q7.56,7.38,7.56,17.73q0,11.25-7.56,18.81q-7.65,7.65-18.9,7.65z"/><path fill="#" d=""/></svg>