<?xml version="1.0" encoding="UTF-8"?>
<svg version="1.1" viewBox="0 0 1592 1600" width="1280" height="1280" xmlns="http://www.w3.org/2000/svg">
<path transform="translate(0)" d="m0 0h1592v1600h-1592v-1600z" fill="#FDFDFE"/>
<path transform="translate(781,663)" d="m0 0c5.76 6.07 5.3 11.5 5.11 19.4-0.216 5.32-0.627 10.6-1.04 15.9-0.0868 1.12-0.174 2.23-0.263 3.38-0.672 8.05-0.672 8.05-1.8 10.3h-3c0.227 0.594 0.453 1.19 0.687 1.8 1.04 2.73 2.08 5.47 3.13 8.2 0.356 0.935 0.713 1.87 1.08 2.83 1.04 2.72 2.07 5.44 3.11 8.17 0.294 0.77 0.587 1.54 0.889 2.33 1.59 4.19 2.94 8.35 4.11 12.7 0.33-0.33 0.66-0.66 1-1 2.33-0.0409 4.67-0.0424 7 0v-9c0.99-0.33 1.98-0.66 3-1v10c1.65 0.33 3.3 0.66 5 1-0.103-1.07-0.206-2.14-0.312-3.25-0.0143-8.04 4.08-15.9 9.31-21.8 3.69-2.54 5.26-3.1 9.75-2.5 3.25 1.5 3.25 1.5 4.69 3.62 1.36 6.97 0.452 12.1-1.88 18.7-0.808 2.35-0.808 2.35 0.441 5.2 0.66-0.33 1.32-0.66 2-1 2.21-0.0709 4.42-0.0842 6.62-0.0625 1.19 0.00902 2.38 0.018 3.6 0.0273 0.915 0.0116 1.83 0.0232 2.77 0.0352 0.66-2.31 1.32-4.62 2-7h2c0.66 1.98 1.32 3.96 2 6 4.95 0.33 9.9 0.66 15 1 1.47-2.95 2.93-5.91 4.38-8.88 0.413-0.822 0.825-1.64 1.25-2.49 4.5-9.28 6.21-18.3 5.04-28.6-0.905-8.16-0.905-8.16 0.273-12.5 3.35-4.16 7.34-7.25 12.8-7.88 3.13 1.77 4.24 4.03 5.98 7.12 1.35 2.21 2.83 3.98 4.58 5.88 1.73 1.99 2.82 3.45 3.94 5.88-0.247 3.21-1.84 4.3-3.98 6.55-2.07 3.23-1.87 6.74-1.97 10.5-0.238 2.39-0.238 2.39-2.24 4.39 2.78 3.71 5.69 6.56 9.31 9.44 3.3 2.64 6.57 5.29 9.75 8.06 2.65 2.45 2.65 2.45 4.94 3.5-0.0412-1.11-0.0825-2.23-0.125-3.38 0.125-3.62 0.125-3.62 2.12-5.62 0.99 2.64 1.98 5.28 3 8 5.94-0.495 5.94-0.495 12-1 0.242-0.869 0.485-1.74 0.734-2.63 4.16-14.3 4.16-14.3 10.3-18.4 3.41 0.0897 4.9 0.925 7.62 3 3 3.79 4.08 7.4 5.38 12 0.392 1.18 0.784 2.35 1.19 3.56 0.268 0.804 0.536 1.61 0.812 2.44 0.843 0.0606 1.69 0.121 2.55 0.184 1.64 0.126 1.64 0.126 3.32 0.254 1.09 0.0812 2.18 0.162 3.3 0.246 2.82 0.316 2.82 0.316 4.82 1.32v-10h3c2 3 2 3 4 9 4.29-0.33 8.58-0.66 13-1-1.5-4.92-1.5-4.92-4.44-7-5.42-6.35-5.87-14.9-5.44-23 1.19-11.4 2.83-23.4 11.6-31.5 4-2.59 6.49-2.92 11.3-2.5 2.98 2.25 4.56 4.6 6 8 0.812 6.8-0.426 13.4-2 20-0.33-0.99-0.66-1.98-1-3h-2v-2h-2c0.0887 1.98 0.197 3.96 0.312 5.94 0.058 1.1 0.116 2.2 0.176 3.34 1.16 8.43 4.56 15 9.07 22.2 0.494 0.801 0.989 1.6 1.5 2.43 2.66 4.31 2.66 4.31 5.94 8.13 1.99 0.398 3.99 0.738 6 1v-9c1.49-0.495 1.49-0.495 3-1 0.33 2.64 0.66 5.28 1 8 5.94 0.495 5.94 0.495 12 1-0.33-0.66-0.66-1.32-1-2-0.745-12.4 5.39-23.9 12-34l1.46-2.34c3.41-5.06 7.63-8.78 13.5-10.7 3.56 0.336 4.87 0.898 7.75 3.12 2.64 3.38 3 5.65 3.25 9.88-1.32 0.66-2.64 1.32-4 2 0.285 1.56 0.579 3.13 0.875 4.69 0.162 0.87 0.325 1.74 0.492 2.64 0.657 2.78 1.3 5.14 2.63 7.68 2.03 1.32 2.03 1.32 4.5 2.06 1.33 0.481 1.33 0.481 2.69 0.973 0.927 0.318 1.85 0.637 2.81 0.965 1.82 0.652 3.63 1.32 5.44 2 0.803 0.289 1.61 0.577 2.43 0.875 2.55 1.35 3.67 2.65 5.13 5.12v3h2v2c0.99 0.33 1.98 0.66 3 1 2.52 5.95 2.28 12.9 2.23 19.2-4.58e-4 0.945-9.16e-4 1.89-0.00139 2.86-3e-3 1.98-0.0108 3.97-0.0233 5.95-0.0183 3.02-0.0205 6.04-0.0203 9.06-0.00492 1.94-0.0107 3.88-0.0176 5.81-0.00111 0.893-0.00223 1.79-0.00337 2.71-0.0391 5.21-0.415 10.2-1.16 15.4-1.32-0.33-2.64-0.66-4-1v-2c-0.779 0.0722-1.56 0.144-2.36 0.219-5.64 0.468-11.2 0.823-16.8 0.742-0.887-0.0122-1.77-0.0245-2.69-0.0371-1.75-0.0321-3.51-0.0773-5.26-0.137-4.95-0.0899-7.68 0.286-11.8 3.21-3.9-0.234-5.72-0.813-9-3-2.04-0.308-2.04-0.308-4.3-0.275-0.865-0.00953-1.73-0.0191-2.62-0.0289-1.4 0.00137-1.4 0.00137-2.82 0.00276-1.44-0.00643-1.44-0.00643-2.91-0.013-2.03-0.00574-4.07-0.00624-6.1-0.00191-3.11 0.00315-6.21-0.0203-9.32-0.0457-1.98-0.00227-3.95-0.00298-5.93-0.00195-1.39-0.0138-1.39-0.0138-2.81-0.0279-5 0.0358-8.03 0.364-12.2 3.39-3.06 0.375-3.06 0.375-6 0-0.53-0.495-1.06-0.989-1.61-1.5-3.7-2.32-7.32-1.93-11.6-1.9-0.895-0.00287-1.79-0.00574-2.71-0.0087-1.89-0.00204-3.78 0.00348-5.67 0.016-2.89 0.0161-5.78 1.46e-4 -8.67-0.019-1.84 0.00198-3.67 0.00583-5.51 0.0117-0.864-0.00607-1.73-0.0121-2.62-0.0184-4.56 0.0534-7.12 0.199-10.6 3.42-3.51-0.257-5.03-1.02-8-3-2.42-0.31-2.42-0.31-5.14-0.275-1.05-0.00953-2.1-0.0191-3.18-0.0289-1.13 9.11e-4 -2.26 0.00182-3.43 0.00276-1.16-0.00429-2.33-0.00857-3.52-0.013-2.46-0.00575-4.92-0.00624-7.38-0.00191-3.77 0.00316-7.54-0.0203-11.3-0.0457-2.39-0.00227-4.78-0.00298-7.17-0.00195-1.13-0.00921-2.26-0.0184-3.42-0.0279-1.05 0.00623-2.1 0.0125-3.19 0.0189-0.924-6.29e-4 -1.85-0.00126-2.8-0.00191-2.93 0.443-4.17 1.59-6.47 3.37-4.21-0.221-6.48-0.65-10-3-2.29-0.31-2.29-0.31-4.87-0.275-0.988-0.00953-1.98-0.0191-2.99-0.0289-1.6 0.00137-1.6 0.00137-3.23 0.00276-1.1-0.00429-2.19-0.00857-3.32-0.013-2.32-0.00575-4.64-0.00624-6.96-0.00191-3.55 0.00316-7.1-0.0203-10.7-0.0457-2.25-0.00227-4.5-0.00298-6.76-0.00195-1.6-0.0138-1.6-0.0138-3.22-0.0279-0.991 0.00623-1.98 0.0125-3 0.0189-0.87-6.29e-4 -1.74-0.00126-2.64-0.00191-2.84 0.451-4.11 1.65-6.36 3.37-6.33-0.327-6.33-0.327-9-3-4.38-0.4-8.78-0.329-13.2-0.316-2.18 0.00315-4.37-0.0203-6.55-0.0457-1.39-0.00227-2.78-0.00298-4.17-0.00195-1.9-0.00447-1.9-0.00447-3.83-0.00903-3.52 0.401-4.64 1.14-7.27 3.37-3.44 0.438-3.44 0.438-7 0-1.08-0.995-1.08-0.995-2.17-2.01-3.94-2.77-6.94-2.46-11.6-2.27-1.27 0.0311-1.27 0.0311-2.56 0.0629-1.78 0.0485-3.56 0.107-5.34 0.175-2.71 0.101-5.43 0.166-8.14 0.225-1.74 0.0518-3.47 0.106-5.21 0.162-0.806 0.0189-1.61 0.0379-2.44 0.0574-4.91 0.21-8.14 1.14-12.5 3.59-3.12 0.375-3.12 0.375-6 0l-1.66-1.52c-3.43-2.17-6.74-1.76-10.7-1.61-1.61 0.0314-3.22 0.0586-4.83 0.082-0.809 0.0124-1.62 0.0248-2.45 0.0376-3.67 0.00818-7.31-0.183-11-0.432-1.83-0.122-1.83-0.122-3.69-0.246-2.75-0.316-2.75-0.316-3.75-1.32-0.094-1.96-0.117-3.93-0.114-5.9 7.55e-5 -1.26 1.51e-4 -2.52 2.29e-4 -3.82 0.00511-1.39 0.0103-2.77 0.0156-4.16 0.00186-1.41 0.00329-2.82 0.00429-4.23 0.00382-3.72 0.0137-7.44 0.0247-11.2 0.0102-3.79 0.0148-7.59 0.0198-11.4 0.0107-7.45 0.0278-14.9 0.0488-22.3 1.49-0.495 1.49-0.495 3-1 0.33 2.31 0.66 4.62 1 7 6.93 0.495 6.93 0.495 14 1-0.804-1.26-1.61-2.52-2.44-3.81-6.29-9.84-5.12-26.4-2.84-37.6 0.887-3.04 1.89-5.79 3.28-8.64 0.339-0.708 0.678-1.42 1.03-2.14 3.13-5.3 8.26-7.94 14-9.86 3.81-0.0705 5.19 0.305 8.05 2.77 2.05 2.35 2.79 3.96 3.7 6.91 2.03 6.04 4.71 11.7 7.52 17.4 2.62 5.4 3.87 9.94 3.92 16 0.0142 0.837 0.0284 1.67 0.043 2.54-0.247 2.57-0.937 4.19-2.23 6.4h-3c3.19 6.26 3.19 6.26 9 10 2.69 0.707 2.69 0.707 5 1-0.0348-0.626-0.0696-1.25-0.105-1.9-0.0271-0.817-0.0541-1.63-0.082-2.48-0.0522-1.22-0.0522-1.22-0.105-2.46 0.0967-0.714 0.193-1.43 0.293-2.16 1.49-0.99 1.49-0.99 3-2 2 3 2 3 3 9 4.95 0.33 9.9 0.66 15 1-1.66-8.2-3.49-16-6.13-24-4.52-15.8-3.75-37.7 3.01-52.7 3.96-6.17 7.86-9.35 15.1-7.31z" fill="#27272A"/>
<path transform="translate(435 641)" d="m0 0c3.79 3.98 6.81 8.16 9.69 12.8 0.799 1.24 0.799 1.24 1.61 2.5 5.21 8.29 8.3 16.6 10.6 26.1 0.167 0.696 0.334 1.39 0.506 2.11 6.33 27.8 2.51 58.6-11.7 83.3-2.43 3.57-5.1 6.79-8 10-0.704 0.82-1.41 1.64-2.13 2.48-13.2 14.4-30.9 21.1-49.9 23.5-0.996 0.147-1.99 0.294-3.02 0.445-23.1 2.63-46.2-3.17-64.4-17.6-1.52-1.27-3.05-2.54-4.56-3.81-1.24-0.942-1.24-0.942-2.51-1.9-14.2-12-22.9-33.9-25.2-52.1-1.28-15.4-1.2-31 2.72-46 0.255-1.08 0.51-2.15 0.773-3.26 5.4-20.2 18.1-38.9 36.3-49.4 8.17-4.59 16.1-8.38 25.3-10.4 0.756-0.171 1.51-0.342 2.29-0.518 28.9-6.4 60.2 0.942 81.6 21.8z" fill="#002066"/>
<path transform="translate(384,850)" d="m0 0c9.38 7.76 17.9 19.7 19.2 32.1 0.321 5.96 0.191 11.9 0.103 17.9-0.0126 1.93-0.023 3.87-0.0315 5.8-0.0265 5.06-0.0752 10.1-0.131 15.2-0.0866 8.11-0.146 16.2-0.192 24.3-0.0203 2.82-0.0544 5.63-0.09 8.44-0.593 17.4-0.593 17.4 7.12 32.3 5.26 3.67 10.5 6.08 17 5 5.94-2.15 11.1-5.38 14.1-11.1 1.21-3.98 1.16-7.68 1.14-11.8 0.00362-0.889 0.00724-1.78 0.011-2.69 0.00688-1.93 0.0094-3.85 0.00805-5.78-9.68e-4 -3.06 0.012-6.12 0.029-9.17 0.0462-8.69 0.0709-17.4 0.0775-26.1 0.00504-5.32 0.0294-10.6 0.0653-16 0.00974-2.02 0.0122-4.04 0.00683-6.06-0.0482-19.2 3.52-34.7 17.1-49.1 10.3-9.49 23.9-13.6 37.6-13.5 13.3 0.969 24.7 7.18 33.7 16.7 9.87 11.9 13.8 25.4 13.5 40.7-0.00274 1.24-0.00549 2.48-0.00832 3.76-0.012 3.36-0.0422 6.72-0.0821 10.1-0.0387 3.53-0.0569 7.07-0.0785 10.6-0.0395 5.92-0.0961 11.8-0.163 17.8-0.0765 6.84-0.124 13.7-0.156 20.5-0.0321 6.6-0.0866 13.2-0.151 19.8-0.0266 2.8-0.0452 5.6-0.0571 8.4-0.0176 3.91-0.0677 7.81-0.121 11.7-0.00125 1.15-0.00251 2.31-0.0038 3.5-0.115 6.23-0.473 9.97-4.61 14.7-0.413 0.598-0.825 1.2-1.25 1.81-3.01 2.05-6.21 2.29-9.75 2.19-5.25-1.04-9.74-2.56-13-7-2.14-4.25-2.31-8.22-2.32-12.9-0.0151-1.17-0.0151-1.17-0.0304-2.37-0.0309-2.59-0.0479-5.18-0.0648-7.78-0.0188-1.83-0.0383-3.67-0.0587-5.5-0.0514-4.86-0.0909-9.71-0.128-14.6-0.0315-3.85-0.0712-7.7-0.112-11.6-0.0493-4.73-0.0946-9.45-0.139-14.2-0.00892-0.933-0.0178-1.87-0.027-2.83-0.0919-9.95-0.136-19.9-0.0384-29.8 0.013-1.66 0.0258-3.32 0.0385-4.98 0.0238-3.06 0.0673-6.13 0.123-9.19 0.2-12 0.2-12-5-22.5-0.597-0.443-1.19-0.887-1.81-1.34-0.599-0.464-1.2-0.928-1.82-1.41-4.51-3.04-9.34-2.61-14.6-2.09-5.34 1.62-9.01 4.24-12 9-2.85 5.62-3.53 10.2-3.69 16.5-0.0334 0.944-0.0669 1.89-0.101 2.86-0.418 13.5-0.28 27.1-0.211 40.6 0.0206 4.06 0.0398 8.12 0.051 12.2 0.00738 2.5 0.0192 5 0.0366 7.5 0.0555 19.3-1.75 33.3-15.1 47.9-10.4 10.1-22.7 12.7-36.7 12.8-15.4-0.229-24.6-5.99-35.6-16.6-9.36-9.76-13-21.8-13-35-0.00523-0.887-0.0105-1.77-0.0158-2.69-0.0102-1.91-0.016-3.83-0.0179-5.74-0.00368-3.03-0.0205-6.06-0.0408-9.09-0.0552-8.61-0.0861-17.2-0.111-25.8-0.0159-5.28-0.0461-10.6-0.0848-15.8-0.0116-2.01-0.0176-4.01-0.0177-6.02-1.93e-4 -2.81-0.0185-5.61-0.0406-8.42 0.00458-0.823 0.00915-1.65 0.0139-2.49-0.0931-7.46-2.19-13.1-7.41-18.6-5.44-3.88-10.5-3.81-17-3-2.68 1.07-4.61 2.34-7 4h-2c-4.62 8.89-6.17 16.6-6.09 26.5 0.00197 0.83 0.00394 1.66 0.00596 2.52 0.00769 2.77 0.0226 5.53 0.0373 8.3 0.00683 1.99 0.0132 3.98 0.019 5.97 0.0133 4.28 0.0294 8.56 0.0476 12.8 0.0279 6.77 0.0449 13.5 0.0595 20.3 0.00514 2.32 0.0103 4.64 0.0155 6.95 0.00259 1.16 0.00517 2.32 0.00784 3.52 0.036 15.7 0.0815 31.5 0.148 47.2 0.0445 10.6 0.0747 21.3 0.0889 31.9 0.00807 5.62 0.0236 11.2 0.0567 16.9 0.031 5.29 0.0435 10.6 0.0418 15.9 0.0027 1.94 0.0123 3.88 0.0292 5.82 0.0222 2.65 0.0196 5.3 0.0109 7.95 0.0185 1.15 0.0185 1.15 0.0374 2.32-0.0561 5.48-1.43 8.65-4.51 13.2-3.82 3.59-8.17 3.62-13.2 3.49-4.55-0.795-7.71-3.11-10.8-6.49-2.52-3.75-2.29-7.66-2.29-12-0.0065-0.814-0.013-1.63-0.0197-2.47-0.0194-2.73-0.0246-5.47-0.0298-8.2-0.0109-1.96-0.0227-3.92-0.0353-5.87-0.0316-5.32-0.0509-10.6-0.0676-16-0.0194-5.58-0.0491-11.2-0.0774-16.7-0.0461-9.38-0.0845-18.8-0.118-28.1-0.0387-10.8-0.088-21.6-0.143-32.5-0.0532-10.4-0.1-20.8-0.144-31.3-0.0186-4.43-0.0391-8.85-0.0611-13.3-0.0256-5.23-0.0456-10.5-0.0616-15.7-0.00665-1.91-0.0151-3.82-0.0255-5.73-0.111-20.8-0.016-40.1 14.4-56.9 0.887-0.763 1.77-1.53 2.69-2.31 0.601-0.541 1.2-1.08 1.82-1.64 18.4-15.6 43.7-16.8 63.2-2.36z" fill="#0044FA"/>
<path transform="translate(774 847)" d="m0 0c0.697-0.00657 1.39-0.0131 2.11-0.0199 2.31-0.0197 4.62-0.0314 6.93-0.0414 1.19-0.00611 1.19-0.00611 2.41-0.0124 4.21-0.0209 8.43-0.0352 12.6-0.0445 4.31-0.011 8.62-0.0453 12.9-0.0852 3.35-0.0264 6.69-0.0345 10-0.0381 1.59-0.00481 3.17-0.0163 4.76-0.035 17.9-0.199 35.6 2.97 49.3 15.5 12.1 14.4 14.6 29.5 13 48-1.8 11.7-7.45 21.8-17 29-5.15 3.04-10.6 5.55-16 8 0.777 3.26 0.777 3.26 3.94 5.25 10.6 8.82 16.8 23.4 22.9 35.4 1.17 2.28 2.38 4.54 3.61 6.79 7.05 13.1 7.05 13.1 5.59 20.6-1.79 2.87-2.98 4.49-6 6-12 0.94-12 0.94-17.6-1.69-0.804-0.763-1.61-1.53-2.44-2.31-0.806-0.751-1.61-1.5-2.44-2.28-2.6-2.77-4.19-5.28-5.94-8.64-0.605-1.15-1.21-2.29-1.83-3.47-0.468-0.901-0.468-0.901-0.945-1.82-0.978-1.88-1.97-3.76-2.96-5.64-1.33-2.52-2.67-5.05-3.99-7.58-2.61-4.96-5.27-9.9-7.95-14.8-0.416-0.777-0.832-1.55-1.26-2.36-5.85-11-5.85-11-15.9-17.8-6.2-1.39-12.6-1.03-18.9-0.877-1.45 0.0201-2.9 0.0383-4.36 0.0547-3.53 0.0437-7.05 0.112-10.6 0.195-0.816 6.37-1.12 12.5-1.06 19 0.00379 0.92 0.00757 1.84 0.0115 2.79 0.0121 2.91 0.0307 5.83 0.051 8.74 0.0268 3.84 0.0467 7.69 0.0625 11.5 0.0083 0.866 0.0166 1.73 0.0251 2.62 0.0641 16.1 0.0641 16.1-5.09 22.3-3.73 2.49-5.86 2.33-10.3 2.38-1.3 0.0284-2.59 0.0567-3.93 0.0859-4.47-0.547-6.44-1.42-9.76-4.46-3.69-7.29-3.43-14.4-3.39-22.5-0.00407-1.46-0.00942-2.92-0.0159-4.37-0.0136-3.94-0.0084-7.88 0.00114-11.8 0.00762-4.13 5.44e-4 -8.27-0.00416-12.4-0.00545-6.94 0.00171-13.9 0.016-20.8 0.0163-8.01 0.011-16-0.00548-24-0.0136-6.89-0.0155-13.8-0.00768-20.7 0.00467-4.11 0.00533-8.22-0.00461-12.3-0.00869-3.86-0.00261-7.73 0.0147-11.6 0.00395-1.41 0.00285-2.83-0.00379-4.24-0.0649-15.2-0.0649-15.2 4.9-21 5.01-3.78 8.19-4.39 14.4-4.43z" fill="#1A335D"/>
<path transform="translate(1310 684)" d="m0 0c0.812 0.271 1.62 0.542 2.46 0.821 0.62 0.207 1.24 0.414 1.88 0.627 0.903 26.7 1.28 53.4 1.53 80.1 0.0513 5.32 0.106 10.6 0.161 16 0.106 10.3 0.208 20.7 0.307 31 0.901 0.326 1.8 0.652 2.73 0.988 1.18 0.437 2.36 0.874 3.57 1.32 1.17 0.429 2.34 0.859 3.54 1.3 5.14 2.26 6.97 5.02 9.47 10 0.688 2.38 0.688 2.38 0.688 6.38-26.8 0.821-51.1 0.201-77-7-2.77-0.708-5.54-1.38-8.31-2.06-1.16-0.3-2.32-0.601-3.52-0.91-5.86-1.48-11.8-2.73-17.7-4.03-7.19-1.58-14.4-3.17-21.5-5-7.01-1.79-14.1-3.38-21.1-4.94-1.16-0.256-2.31-0.511-3.5-0.775-4.54-1-9.07-2-13.6-3-2.98-0.654-5.97-1.32-8.95-1.98-0.877-0.19-1.75-0.38-2.66-0.576-7.11-1.59-14.1-3.52-20.2-7.74-1.55-3.09-1.29-5.59-1-9 1.69-2.44 1.69-2.44 4-4 2.64-0.0977 2.64-0.0977 5 0-0.00444-1.11-0.00888-2.22-0.0135-3.37-0.0405-10.4-0.0705-20.9-0.0902-31.3-0.0105-5.37-0.0246-10.7-0.0473-16.1-0.0217-5.18-0.0337-10.4-0.0389-15.5-0.00371-1.98-0.0109-3.96-0.0217-5.94-0.0144-2.77-0.0165-5.53-0.0156-8.3-0.00719-0.825-0.0144-1.65-0.0218-2.5 0.0207-5.67 0.0207-5.67 2.25-7.9 3.4-1.7 6.67-3.07 10.5-2.88 2.23 0.781 4.44 1.6 6.66 2.43 0.72 0.271 1.44 0.541 2.18 0.82 0.548 0.206 1.1 0.413 1.66 0.625 0.00143 0.891 0.00285 1.78 0.00432 2.7 0.0178 8.4 0.0595 16.8 0.128 25.2 0.0343 4.32 0.0594 8.64 0.0635 13 0.00428 4.17 0.0327 8.34 0.0779 12.5 0.013 1.59 0.0173 3.18 0.0127 4.77-0.00491 2.23 0.0212 4.46 0.0544 6.69 0.00666 1.27 0.0133 2.54 0.0202 3.84 0.805 4.2 2.38 5.67 5.64 8.33 2.44 1.22 4.51 1.41 7.23 1.75 1.55 0.198 1.55 0.198 3.12 0.4 1.62 0.202 1.62 0.202 3.27 0.408 1.09 0.139 2.18 0.277 3.3 0.42 2.69 0.342 5.39 0.68 8.08 1.02-0.33-5.28-0.66-10.6-1-16-2.89 3.62-5.46 7.15-8 11-0.33 0.33-0.66 0.66-1 1-2.34-0.287-4.67-0.619-7-1-1.07-4.3-1.41-6.79 0.707-10.8 0.369-0.696 0.737-1.39 1.12-2.11 0.582-1.06 0.582-1.06 1.18-2.14 0.361-0.665 0.722-1.33 1.09-2.02 1.1-2 2.22-4 3.34-5.98 0.394-0.697 0.788-1.39 1.19-2.11 8.2-14.4 8.2-14.4 11.4-16.9 2.56-0.388 2.56-0.388 5.59-0.398 1.64-0.0058 1.64-0.0058 3.32-0.0117 1.14 0.0116 2.29 0.0232 3.47 0.0352 1.14-0.0116 2.27-0.0232 3.45-0.0352 1.1 0.00387 2.2 0.00773 3.33 0.0117 1.5 0.00508 1.5 0.00508 3.04 0.0103 3.38 0.467 5.12 1.29 7.81 3.39 1.91 2.69 1.91 2.69 3.71 5.93 0.329 0.584 0.658 1.17 0.997 1.77 1.05 1.87 2.08 3.74 3.11 5.62 0.679 1.22 1.36 2.43 2.04 3.65 1.02 1.82 2.04 3.65 3.05 5.48 1.75 3.18 3.54 6.32 5.43 9.42 0.376 0.628 0.752 1.26 1.14 1.9 1.05 1.74 2.11 3.47 3.17 5.2 1.51 3.35 1.64 4.64 0.365 8.03-0.66 0.66-1.32 1.32-2 2-3.92-0.074-6.3-0.493-9.5-2.81-3.32-3.72-5.56-8.3-7.95-12.6-1.3-2.64-1.3-2.64-3.55-3.55 0.495 8.91 0.495 8.91 1 18 11.7 3.88 24.7 6.39 37 5 2.61-2.61 2.24-4.44 2.27-7.99-0.00619-1.26-0.00619-1.26-0.0125-2.54 0.00362-0.883 0.00724-1.77 0.011-2.68 0.0069-1.92 0.0094-3.84 0.00805-5.76-9.62e-4 -3.04 0.0119-6.08 0.029-9.11 0.0464-8.64 0.0709-17.3 0.0775-25.9 5e-3 -5.28 0.0292-10.6 0.0653-15.8 0.00982-2.02 0.0121-4.03 0.00683-6.05-0.00704-2.82 0.0102-5.63 0.0328-8.45-0.0123-1.26-0.0123-1.26-0.0248-2.54 0.081-5.64 0.081-5.64 2.41-8.13 2.51-1.18 4.7-1.63 7.44-2 3.45-0.531 6.23-1.1 9.31-2.75 6-2.22 11.2 0.353 17 2.3z" fill="#242323"/>
<path transform="translate(514 619)" d="m0 0c3.39 1.97 5.21 3.88 7.66 6.93 0.419 0.519 0.837 1.04 1.27 1.57 1.41 1.76 2.79 3.53 4.17 5.3 0.5 0.643 0.999 1.29 1.51 1.95 3.3 4.26 6.56 8.55 9.81 12.8 2.71 3.58 5.44 7.14 8.17 10.7 3.24 4.24 6.48 8.47 9.71 12.7 5.5 7.21 11 14.4 16.6 21.5 5.13 6.57 10.2 13.2 15.2 19.8 0.667 0.874 1.33 1.75 2.02 2.65 3.25 4.26 6.48 8.53 9.68 12.8 0.59 0.786 1.18 1.57 1.79 2.38 1.1 1.47 2.2 2.95 3.29 4.43 0.491 0.652 0.982 1.3 1.49 1.98 0.422 0.568 0.844 1.14 1.28 1.72 1.63 1.7 3.28 2.45 5.39 3.45-0.00222-0.99-0.00444-1.98-0.00673-3-0.0205-9.47-0.0354-18.9-0.0451-28.4-0.00515-4.86-0.0121-9.73-0.0236-14.6-0.085-37.1-0.085-37.1 0.392-54.4 0.0333-1.68 0.0333-1.68 0.0674-3.38 0.234-6.75 0.871-11.7 5.99-16.5 5.1-3.4 8.45-4.09 14.5-3.22 4.14 0.911 6.4 2.46 8.9 5.85 2.23 4.67 2.38 9.08 2.39 14.2 0.00297 0.647 0.00594 1.29 9e-3 1.96 0.00865 2.16 0.0102 4.32 0.0117 6.48 0.00463 1.55 0.00966 3.11 0.015 4.66 0.0131 4.21 0.0196 8.43 0.024 12.6 0.00293 2.63 0.00704 5.27 0.0115 7.9 0.0137 8.25 0.0233 16.5 0.0272 24.7 0.00448 9.51 0.022 19 0.051 28.5 0.0216 7.36 0.0317 14.7 0.033 22.1 0.00105 4.39 0.00691 8.78 0.0248 13.2 0.0165 4.13 0.0186 8.27 0.00986 12.4-7.68e-4 1.51 0.00354 3.02 0.0135 4.54 0.1 16.3 0.1 16.3-3.37 22.3-3.29 2.97-6.12 3.89-10.5 4.44-8.51-1.06-14.4-5.63-19.6-12.2-1.06-1.41-2.12-2.83-3.17-4.25-1.15-1.53-2.29-3.05-3.44-4.58-0.561-0.751-1.12-1.5-1.7-2.28-2.24-2.99-4.51-5.94-6.8-8.9-0.798-1.04-1.6-2.07-2.42-3.14-0.79-1.03-1.58-2.05-2.39-3.11-1.67-2.17-3.33-4.33-5-6.5-0.833-1.08-1.67-2.17-2.5-3.25-25-32.5-25-32.5-26.2-34.1-0.834-1.08-1.67-2.17-2.5-3.25-2.07-2.69-4.14-5.39-6.21-8.09-4.85-6.33-9.74-12.6-14.7-18.9-2.54-3.22-5-6.47-7.41-9.78-0.804-1.03-1.61-2.06-2.44-3.12h-2c-8.17e-4 0.905-8.17e-4 0.905-0.00165 1.83-0.015 14.7-0.0574 29.4-0.13 44.1-0.0346 7.1-0.06 14.2-0.0635 21.3-0.00337 6.85-0.0327 13.7-0.0779 20.6-0.013 2.62-0.0173 5.23-0.0127 7.85 0.00488 3.66-0.0211 7.32-0.0544 11 0.00863 1.09 0.0173 2.17 0.0261 3.29-0.113 7.36-0.113 7.36-3.08 11.2-4.96 3.56-9.48 4.78-15.6 3.87-4.24-1.4-7.23-2.98-9.94-6.56-1.58-3.62-2.19-6.39-2.23-10.3-0.0112-1.01-0.0225-2.01-0.034-3.05-0.00733-1.1-0.0147-2.21-0.0222-3.34-0.0115-1.16-0.023-2.33-0.0349-3.53-0.0305-3.2-0.0565-6.4-0.0802-9.61-0.0205-2.7-0.044-5.4-0.0675-8.1-0.0557-6.41-0.106-12.8-0.154-19.2-0.0431-5.8-0.0915-11.6-0.146-17.4-0.509-55-0.509-55-0.00781-76.9 0.0176-1.04 0.0176-1.04 0.0355-2.1 0.304-16.5 0.304-16.5 6.05-22.2 5.57-3.45 10.2-5.03 16.5-2.43z" fill="#002066"/>
<path transform="translate(655 848)" d="m0 0c9.02 7.33 13.6 18.1 17.6 28.8 1.4 3.57 2.95 7 4.6 10.5 2.67 5.65 5.25 11.3 7.77 17 0.499 1.13 0.499 1.13 1.01 2.28 1.36 3.08 2.72 6.17 4.07 9.26 3.4 7.73 6.82 15.4 10.7 22.9 2.75 5.39 4.98 10.8 7.09 16.5 2.06 5.35 4.53 10.5 6.97 15.7 3.94 8.43 7.78 16.9 11.4 25.4 0.374 0.875 0.748 1.75 1.13 2.65 4.31 10.2 4.31 10.2 3.68 16.4-2.01 3.48-4.12 5.71-8 7-2.6 0.379-2.6 0.379-5.62 0.562-0.982 0.0838-1.96 0.168-2.98 0.254-5.49-1.32-8.81-4.56-12.4-8.82-2.38-4.06-4.14-8.26-5.88-12.6-0.913-2.2-1.83-4.4-2.74-6.6-0.412-1.01-0.824-2.03-1.25-3.07-0.911-2.17-1.87-4.26-2.95-6.35-1.18-2.35-1.18-2.35-1.18-4.35-27.7 0.33-55.4 0.66-84 1-0.99 2.97-1.98 5.94-3 9-1.51 3.92-3.16 7.77-4.81 11.6-0.62 1.5-0.62 1.5-1.25 3.02-2.49 5.8-5.08 11.2-9.94 15.4-4.94 1.65-9.86 1.72-15 1-3.55-1.95-6.18-4.37-8-8-0.0932-8.65 3.48-16.1 7.34-23.6 2.67-5.31 5.05-10.7 7.41-16.2 4.8-11 9.78-22 14.8-32.9 0.55-1.19 0.55-1.19 1.11-2.41 1.45-3.14 2.89-6.28 4.34-9.41 2.97-6.45 5.92-12.9 8.86-19.4 0.386-0.848 0.772-1.7 1.17-2.57 2.04-4.5 4.02-9.01 5.95-13.6 10.2-23.6 10.2-23.6 15.3-34.2 0.433-0.936 0.433-0.936 0.874-1.89 2.76-5.58 6.91-9.55 12.8-11.7 5.03-1.67 8.31-1.01 13 1.44z" fill="#1A335D"/>
<path transform="translate(1310 585)" d="m0 0c8.06 7.71 11.1 20.6 14.8 30.9 1.12 3.1 2.27 6.19 3.42 9.28 0.822 2.22 1.64 4.44 2.46 6.66 0.394 1.04 0.787 2.08 1.19 3.16 3 8.2 5.67 16.3 1.93 24.7-3.55 4.59-7.15 8.01-13 9-7.53 0.671-13.7 0.531-20-4-1.83-1.58-3.39-3.18-5-5-0.619 0.99-1.24 1.98-1.88 3-0.701 0.99-1.4 1.98-2.12 3h-2c-0.33 0.99-0.66 1.98-1 3-5.01 2.76-9.3 3.81-15 3-5.85-1.82-8.98-4.58-13-9-0.364 0.543-0.727 1.09-1.1 1.64-3.13 4.46-5.53 7.64-10.9 9.36-5.43 0.763-9.3-0.0113-14-3-2.38-2-2.38-2-4-4v-3c-0.303 0.531-0.606 1.06-0.918 1.61-4.77 8.04-4.77 8.04-9.08 10.4-4.79 0.853-8.07 0.499-12.4-1.81-2-1.67-3.81-3.34-5.62-5.19-0.41 0.494-0.82 0.987-1.24 1.5-0.539 0.641-1.08 1.28-1.63 1.94-0.534 0.638-1.07 1.28-1.62 1.93-2.51 2.71-4.62 2.89-8.2 3.07-5.16-0.00749-7.54-1.55-11.1-5.12-0.389-0.433-0.779-0.866-1.18-1.31-0.897 1.42-0.897 1.42-1.81 2.88-2.19 3.12-2.19 3.12-5.19 5.12-5.74 0.649-8.48-0.51-13-4-1.48-0.99-1.48-0.99-3-2-0.247 0.763-0.495 1.53-0.75 2.31-1.41 3.03-2.27 4.2-5.25 5.69-4.36 0-7.63-1.34-10.9-4.31-2.73-4.1-1.42-10-0.598-14.6 0.705-3.14 1.48-6.25 2.29-9.36 0.558-2.21 1.12-4.43 1.67-6.64 0.266-1.05 0.532-2.09 0.807-3.17 0.583-2.36 1.12-4.72 1.6-7.11 1.56-7.71 3.39-13.9 9.79-18.8 3.63-2.11 7.1-3.26 11.1-4.24 0.789-0.201 1.58-0.402 2.39-0.609 9.93-2.46 20-4.51 30-6.58 7.04-1.46 14-3.01 21-4.79 4.86-1.22 9.75-2.27 14.6-3.34 8.42-1.85 16.8-3.75 25.2-5.7 0.864-0.2 1.73-0.401 2.62-0.607 4.29-0.997 8.58-2 12.9-3 27.7-6.45 27.7-6.45 36.7-2.76z" fill="#232323"/>
<path transform="translate(944,846)" d="m0 0c1.36 0.309 1.36 0.309 2.75 0.625 3.44 2.1 4.96 4.65 6.25 8.38 0.615 5.11 0.606 10.2 0.609 15.3 0.015 1.49 0.0317 2.98 0.0501 4.48 0.0435 3.91 0.0636 7.82 0.0787 11.7 0.0196 4 0.0616 7.99 0.102 12 0.0751 7.82 0.126 15.6 0.16 23.5 4.28-2.3 7.52-5.25 10.9-8.68 0.568-0.568 1.14-1.14 1.72-1.72 1.87-1.87 3.73-3.75 5.59-5.63 1.3-1.31 2.61-2.61 3.91-3.92 3.43-3.44 6.85-6.88 10.3-10.3 3.47-3.49 6.95-6.98 10.4-10.5 5.62-5.64 11.2-11.3 16.9-16.9 18.4-18.5 18.4-18.5 27.4-19.8 4.8 0.715 7.71 3.05 10.9 6.62 1.61 4.25 1.37 7.49 0.0625 11.8-4.87 7.25-12.3 13.3-18.5 19.4-3.26 3.2-6.5 6.41-9.75 9.62-4.12 4.07-8.24 8.13-12.4 12.2-3.36 3.29-6.71 6.59-10 9.91-1.27 1.26-2.55 2.51-3.83 3.75-1.79 1.74-3.55 3.49-5.31 5.25-0.531 0.508-1.06 1.02-1.61 1.54-2.59 2.62-3.57 3.98-3.93 7.71 0.161 1.3 0.161 1.3 0.326 2.63h2c1.44 1.46 1.44 1.46 3.12 3.49 3.79 4.45 7.82 8.56 12 12.7 0.75 0.747 1.5 1.49 2.27 2.26 2.38 2.36 4.75 4.72 7.13 7.08 3.14 3.11 6.27 6.23 9.41 9.34 1.06 1.05 1.06 1.05 2.14 2.12 3.99 3.97 7.79 8.04 11.4 12.3 2.82 3.24 5.94 6.18 9.04 9.16 10.9 10.5 10.9 10.5 12 18.1-0.615 4.23-1.63 6.27-4.5 9.44-5.39 2.43-10.4 2.58-16 1-8.17-4.45-14.6-11.2-21.1-17.8-1.64-1.67-3.29-3.33-4.94-4.98-5.05-5.09-10-10.2-14.7-15.7-2-2.32-4.16-4.44-6.35-6.57l-10-10c-0.767-0.766-1.53-1.53-2.32-2.32-1.77-1.77-3.53-3.55-5.29-5.33-7.81-8.11-7.81-8.11-16.4-15.4h-2c-0.00587 0.866-0.0117 1.73-0.0178 2.62-0.0579 8.17-0.13 16.3-0.218 24.5-0.0447 4.2-0.084 8.4-0.111 12.6-0.026 4.05-0.0664 8.1-0.117 12.2-0.0167 1.54-0.0282 3.09-0.0344 4.63-0.00965 2.17-0.0377 4.33-0.07 6.5-0.0111 1.23-0.0222 2.46-0.0336 3.73-0.526 4.3-2.11 6.87-5.02 10-4.9 2.58-10.3 2.68-15.7 1.56-4.98-1.77-6.67-3.54-9.27-8.05-2.45-5.93-1.86-12.5-1.84-18.8-0.00735-1.47-0.0159-2.94-0.0257-4.42-0.0222-3.99-0.0251-7.97-0.0233-12 1.2e-4 -3.33-0.00846-6.67-0.0168-10-0.0192-7.87-0.0221-15.7-0.0154-23.6 0.00664-8.1-0.0162-16.2-0.0533-24.3-0.0308-6.97-0.0421-13.9-0.0382-20.9 0.00206-4.16-0.00332-8.31-0.0279-12.5-0.0224-3.91-0.0203-7.83-7.25e-5 -11.7 0.00339-1.43-0.0016-2.86-0.016-4.29-0.0789-8.43 0.296-15.9 5.64-22.8 5.65-4.03 10.3-4.55 17-3z" fill="#1A335D"/>
<path transform="translate(1107 847)" d="m0 0c0.898-0.00496 1.8-0.00993 2.72-0.015 2.97-0.0146 5.94-0.0214 8.91-0.0269 2.06-0.00575 4.13-0.0115 6.19-0.0173 4.33-0.0105 8.66-0.0164 13-0.0198 5.54-0.00549 11.1-0.0295 16.6-0.058 4.27-0.0186 8.53-0.0238 12.8-0.0254 2.04-0.00302 4.09-0.011 6.13-0.0242 2.86-0.0171 5.72-0.0152 8.58-0.00869 1.26-0.0138 1.26-0.0138 2.55-0.0279 4.95 0.0351 8.3 0.67 12.6 3.38 3.46 3.81 3.45 7.7 3.29 12.6-0.382 3.09-1.29 5-3.29 7.38-3.67 2.44-6.44 2.31-10.7 2.32-0.781 0.01-1.56 0.0201-2.37 0.0304-2.58 0.0309-5.16 0.0479-7.74 0.0648-1.79 0.0187-3.58 0.0383-5.37 0.0587-4.71 0.0514-9.42 0.091-14.1 0.128-5.65 0.047-11.3 0.109-17 0.168-8.59 0.0883-17.2 0.158-25.8 0.231 0.33 15.2 0.66 30.4 1 46 7.49 0.0735 7.49 0.0735 15.1 0.148 3.17 0.0354 6.33 0.0714 9.5 0.109 5.03 0.0603 10.1 0.118 15.1 0.164 4.05 0.0369 8.1 0.0833 12.2 0.136 1.54 0.0185 3.09 0.0336 4.63 0.0453 2.17 0.0169 4.33 0.046 6.5 0.0778 1.23 0.0133 2.46 0.0266 3.73 0.0404 4.55 0.389 7.26 1.31 10.5 4.5 3.05 4.93 2.55 10.2 1.72 15.8-2.21 3.28-3.44 4.59-7.25 5.6-3.21 0.47-6.3 0.558-9.54 0.592-0.994 0.0124-0.994 0.0124-2.01 0.0251-1.43 0.0173-2.86 0.0325-4.29 0.0458-2.26 0.0211-4.52 0.0481-6.78 0.0767-5.61 0.0697-11.2 0.129-16.8 0.189-4.75 0.0509-9.5 0.106-14.3 0.166-2.23 0.0266-4.46 0.0474-6.7 0.068-1.36 0.0166-2.72 0.0335-4.08 0.0507-1.79 0.0188-1.79 0.0188-3.61 0.038-2.59-0.15-2.59-0.15-3.67 1.15-0.093 1.44-0.117 2.89-0.114 4.34 1.13e-4 1.38 1.13e-4 1.38 2.29e-4 2.79 0.00516 1 0.0103 2 0.0156 3.03 0.00141 1.02 0.00283 2.04 0.00429 3.09 0.00562 3.27 0.0182 6.54 0.0309 9.81 0.00501 2.21 0.00958 4.42 0.0137 6.63 0.0111 5.43 0.0278 10.9 0.0488 16.3 0.951 0.00143 1.9 0.00285 2.88 0.00432 8.98 0.0167 17.9 0.0595 26.9 0.128 4.61 0.0343 9.23 0.0594 13.8 0.0635 4.45 0.00429 8.91 0.0328 13.4 0.0779 1.7 0.013 3.4 0.0173 5.09 0.0127 2.38-0.00491 4.76 0.0212 7.14 0.0544 0.698-0.00863 1.4-0.0173 2.12-0.0261 5.57 0.13 7.83 1.92 11.6 5.69 2.7 3.56 2.42 7.71 2 12-0.987 3.42-2.07 5.91-5 8-4.98 1.11-9.85 1.15-14.9 1.15-1.32 0.00504-1.32 0.00504-2.66 0.0102-2.89 0.00947-5.78 0.0115-8.66 0.0125-2.01 0.00322-4.03 0.00658-6.04 0.0101-4.22 0.00598-8.44 0.00784-12.7 0.00725-5.4-1.02e-4 -10.8 0.0136-16.2 0.0308-4.16 0.0111-8.32 0.0131-12.5 0.0126-1.99 0.00118-3.98 0.00559-5.97 0.0133-2.79 0.00983-5.57 0.00691-8.36 8.95e-4 -0.816 0.00562-1.63 0.0112-2.47 0.017-7.15-0.0391-13.3-1.01-18.6-6.26-2.78-5.28-3.12-11.1-3.13-16.9-0.00426-1.17-0.00853-2.33-0.0129-3.53 4.53e-4 -1.27 9.06e-4 -2.53 0.00137-3.84-0.00299-1.36-0.0064-2.71-0.0102-4.07-0.00881-3.68-0.0112-7.35-0.0118-11-7.12e-4 -2.3-0.00285-4.6-0.0055-6.9-0.00924-8.03-0.0133-16.1-0.0125-24.1 6.01e-4 -7.47-0.00995-14.9-0.0257-22.4-0.0131-6.43-0.0184-12.9-0.0178-19.3 2.54e-4 -3.83-0.00256-7.67-0.0132-11.5-0.00972-3.61-0.00974-7.21-0.00248-10.8 0.00154-1.95-0.00678-3.89-0.0154-5.84 0.0321-8.96 0.373-16.5 6.26-23.7 5.72-4.15 11-4.15 17.9-4.16z" fill="#1A335D"/>
<path transform="translate(371 646)" d="m0 0c14.2-0.5 27.6 4.68 38.2 14 13.5 14.4 16.6 35.5 16.6 54.4-0.516 16.3-4.43 32.3-14.1 45.7-1.49 0.495-1.49 0.495-3 1-0.495 1.49-0.495 1.49-1 3-12 10.7-26.1 12.7-41.8 11.8-13-1.56-25.2-8.17-33.5-18.3-12.7-18.3-14.2-41.8-11.4-63.3 2.56-14.1 8.91-29.4 20.6-38.2 9.28-5.78 18.3-9.35 29.3-10.2z" fill="#FEFEFE"/>
<path transform="translate(781,663)" d="m0 0c5.76 6.07 5.3 11.5 5.11 19.4-0.216 5.32-0.627 10.6-1.04 15.9-0.0868 1.12-0.174 2.23-0.263 3.38-0.672 8.05-0.672 8.05-1.8 10.3h-3c0.227 0.594 0.453 1.19 0.687 1.8 1.04 2.73 2.08 5.47 3.13 8.2 0.356 0.935 0.713 1.87 1.08 2.83 0.706 1.85 1.41 3.71 2.11 5.56 0.625 1.64 1.26 3.27 1.9 4.91 1.4 3.58 2.48 6.86 2.78 10.7 0.0657 0.763 0.131 1.53 0.199 2.31 0.0374 0.557 0.0748 1.11 0.113 1.69h-2v2h10v1c-5.94 0.495-5.94 0.495-12 1-0.374 14.7 0.79 29.3 2 44 3.63 0.33 7.26 0.66 11 1v-2h2v3h2v-2c0.66 0.33 1.32 0.66 2 1 1.54 0.225 3.08 0.408 4.62 0.562 0.817 0.0838 1.63 0.168 2.48 0.254 0.626 0.0606 1.25 0.121 1.9 0.184v1h-10v2c1.32 0.33 2.64 0.66 4 1-1 0.0606-2 0.121-3.04 0.184-1.34 0.0845-2.68 0.169-4.03 0.254-1.31 0.0812-2.62 0.162-3.97 0.246-7.11 0.122-7.11 0.122-13 3.32-3.31 0.375-3.31 0.375-7 0-0.719-0.662-1.44-1.32-2.18-2.01-3.93-2.78-6.94-2.46-11.6-2.27-1.27 0.0311-1.27 0.0311-2.56 0.0629-1.78 0.0485-3.56 0.107-5.34 0.175-2.71 0.101-5.43 0.166-8.14 0.225-1.74 0.0518-3.47 0.106-5.21 0.162-0.806 0.0189-1.61 0.0379-2.44 0.0574-4.91 0.21-8.14 1.14-12.5 3.59-3.12 0.375-3.12 0.375-6 0l-1.66-1.52c-3.43-2.17-6.74-1.76-10.7-1.61-1.61 0.0314-3.22 0.0586-4.83 0.082-0.809 0.0124-1.62 0.0248-2.45 0.0376-3.67 0.00818-7.31-0.183-11-0.432-1.83-0.122-1.83-0.122-3.69-0.246-2.75-0.316-2.75-0.316-3.75-1.32-0.094-1.96-0.117-3.93-0.114-5.9 7.55e-5 -1.26 1.51e-4 -2.52 2.29e-4 -3.82 0.00511-1.39 0.0103-2.77 0.0156-4.16 0.00186-1.41 0.00329-2.82 0.00429-4.23 0.00382-3.72 0.0137-7.44 0.0247-11.2 0.0102-3.79 0.0148-7.59 0.0198-11.4 0.0107-7.45 0.0278-14.9 0.0488-22.3 1.49-0.495 1.49-0.495 3-1 0.33 2.31 0.66 4.62 1 7 6.93 0.495 6.93 0.495 14 1-0.804-1.26-1.61-2.52-2.44-3.81-6.29-9.84-5.12-26.4-2.84-37.6 0.887-3.04 1.89-5.79 3.28-8.64 0.339-0.708 0.678-1.42 1.03-2.14 3.13-5.3 8.26-7.94 14-9.86 3.81-0.0705 5.19 0.305 8.05 2.77 2.05 2.35 2.79 3.96 3.7 6.91 2.03 6.04 4.71 11.7 7.52 17.4 2.62 5.4 3.87 9.94 3.92 16 0.0142 0.837 0.0284 1.67 0.043 2.54-0.247 2.57-0.937 4.19-2.23 6.4h-3c3.19 6.26 3.19 6.26 9 10 2.69 0.707 2.69 0.707 5 1-0.0348-0.626-0.0696-1.25-0.105-1.9-0.0271-0.817-0.0541-1.63-0.082-2.48-0.0522-1.22-0.0522-1.22-0.105-2.46 0.0967-0.714 0.193-1.43 0.293-2.16 1.49-0.99 1.49-0.99 3-2 2 3 2 3 3 9 4.95 0.33 9.9 0.66 15 1-1.66-8.2-3.49-16-6.13-24-4.52-15.8-3.75-37.7 3.01-52.7 3.96-6.17 7.86-9.35 15.1-7.31z" fill="#252528"/>
<path transform="translate(1234 846)" d="m0 0c1.92-0.0081 1.92-0.0081 3.88-0.0164 3.49-0.0139 6.97-0.00283 10.5 0.0137 3.66 0.0139 7.32 0.00738 11 0.00387 6.14-0.0027 12.3 0.0107 18.4 0.034 7.09 0.0266 14.2 0.0283 21.3 0.0166 6.84-0.0108 13.7-0.00458 20.5 0.00956 2.9 0.00575 5.81 0.00569 8.71 9.35e-4 4.05-0.00567 8.11 0.0136 12.2 0.0354 1.8-0.00675 1.8-0.00675 3.64-0.0136 10.2 0.0911 10.2 0.0911 15 3.42 3.4 3.84 4.32 8.15 4.06 13.2-0.329 3.71-1.51 6.14-4.22 8.74-4.19 2.45-9.44 1.8-14.1 1.78-1.19 0.0151-2.38 0.0302-3.61 0.0458-3.8 0.0429-7.6 0.0517-11.4 0.0596-2.58 0.0231-5.16 0.0485-7.74 0.0762-6.32 0.0629-12.6 0.0978-19 0.111-0.00239 0.694-0.00478 1.39-0.00724 2.1-0.0592 16.9-0.135 33.8-0.228 50.7-0.0449 8.17-0.0843 16.3-0.111 24.5-0.023 7.12-0.0564 14.2-0.102 21.4-0.0239 3.77-0.0426 7.54-0.0489 11.3-0.00607 3.55-0.0261 7.1-0.0567 10.7-0.0129 1.92-0.0112 3.83-9e-3 5.75-0.15 13.8-0.15 13.8-4.85 19.3-4 3.42-9.45 2.68-14.4 2.63-4.1-0.363-6.23-1.42-9.18-4.28-3.45-4.76-4.12-8.78-4.16-14.6-0.00979-1.13-0.0196-2.27-0.0297-3.43-0.00863-1.86-0.00863-1.86-0.0174-3.75-0.0099-1.31-0.0198-2.62-0.03-3.96-0.027-3.58-0.048-7.16-0.068-10.7-0.0219-3.74-0.0493-7.49-0.0761-11.2-0.0499-7.09-0.0948-14.2-0.138-21.3-0.0494-8.07-0.104-16.1-0.16-24.2-0.114-16.6-0.221-33.2-0.323-49.8-2.82-1.41-5.16-1.09-8.31-1.06-1.3 0.00862-2.59 0.0172-3.93 0.0261-0.687 0.00623-1.37 0.0125-2.08 0.0189-9.94 0.0819-19.9 0.134-29.8-0.295-1.11-0.0338-1.11-0.0338-2.25-0.0684-4.31-0.224-7.18-0.992-10.6-3.62-2.43-4.05-2.55-8.39-2-13 1.33-4.32 2.5-5.68 6.32-8.14 5.7-2.7 11.4-2.41 17.6-2.36z" fill="#1A335D"/>
<path transform="translate(1080,699)" d="m0 0c3.63 2.8 4.85 4.29 5.81 8.81 0.0619 1.05 0.124 2.1 0.188 3.19l-4 2c0.285 1.56 0.579 3.13 0.875 4.69 0.244 1.31 0.244 1.31 0.492 2.64 0.657 2.78 1.3 5.14 2.63 7.68 2.03 1.32 2.03 1.32 4.5 2.06 0.888 0.321 1.78 0.642 2.69 0.973 1.39 0.478 1.39 0.478 2.81 0.965 1.82 0.652 3.63 1.32 5.44 2 0.803 0.289 1.61 0.577 2.43 0.875 2.55 1.35 3.67 2.65 5.13 5.12v3h2v2c1.48 0.495 1.48 0.495 3 1 2.52 5.95 2.28 12.9 2.23 19.2-4.58e-4 0.945-9.16e-4 1.89-0.00139 2.86-3e-3 1.98-0.0108 3.97-0.0233 5.95-0.0183 3.02-0.0205 6.04-0.0203 9.06-0.00492 1.94-0.0107 3.88-0.0176 5.81-0.00111 0.893-0.00223 1.79-0.00337 2.71-0.0391 5.21-0.415 10.2-1.16 15.4-1.98-0.495-1.98-0.495-4-1v-2c-1.17 0.108-1.17 0.108-2.36 0.219-5.64 0.468-11.2 0.823-16.8 0.742-0.887-0.0122-1.77-0.0245-2.69-0.0371-1.75-0.0321-3.51-0.0773-5.26-0.137-4.94-0.0897-7.7 0.271-11.8 3.21-4.9-0.102-7.43-1.75-11-5 0.33-0.66 0.66-1.32 1-2-2.94-0.98-4.83-1.12-7.89-1.1-0.938 0.00322-1.88 0.00645-2.84 0.00977-0.976 0.00838-1.95 0.0168-2.96 0.0254-0.988 0.00451-1.98 0.00902-2.99 0.0137-2.44 0.0118-4.88 0.0282-7.32 0.0488v-2h-2v-44c-1.32-0.66-2.64-1.32-4-2 0.495-0.495 0.495-0.495 1-1-0.99-0.66-1.98-1.32-3-2 1.48-0.495 1.48-0.495 3-1v-9c1.48-0.495 1.48-0.495 3-1 0.33 2.64 0.66 5.28 1 8 3.96 0.33 7.92 0.66 12 1-0.33-0.66-0.66-1.32-1-2-0.745-12.4 5.39-23.9 12-34l1.46-2.34c4.25-6.31 10.6-12.2 18.5-9.66z" fill="#232324"/>
<path transform="translate(781,663)" d="m0 0c5.76 6.07 5.3 11.5 5.11 19.4-0.216 5.32-0.627 10.6-1.04 15.9-0.13 1.67-0.13 1.67-0.263 3.38-0.672 8.05-0.672 8.05-1.8 10.3h-3c0.227 0.594 0.453 1.19 0.687 1.8 1.04 2.73 2.08 5.47 3.13 8.2 0.356 0.935 0.713 1.87 1.08 2.83 0.706 1.85 1.41 3.71 2.11 5.56 0.625 1.64 1.26 3.27 1.9 4.91 1.4 3.58 2.48 6.86 2.78 10.7 0.0986 1.14 0.0986 1.14 0.199 2.31 0.0374 0.557 0.0748 1.11 0.113 1.69h-2v2h10v1c-5.94 0.495-5.94 0.495-12 1-0.374 14.7 0.79 29.3 2 44 3.63 0.33 7.26 0.66 11 1v-2h2v3h2v-2c0.66 0.33 1.32 0.66 2 1 1.54 0.225 3.08 0.408 4.62 0.562 0.817 0.0838 1.63 0.168 2.48 0.254 0.626 0.0606 1.25 0.121 1.9 0.184v1h-10v2c1.32 0.33 2.64 0.66 4 1-1 0.0606-2 0.121-3.04 0.184-1.34 0.0845-2.68 0.169-4.03 0.254-1.31 0.0812-2.62 0.162-3.97 0.246-7.11 0.122-7.11 0.122-13 3.32-3.31 0.375-3.31 0.375-7 0-0.747-0.66-1.49-1.32-2.26-2-3.6-2.63-5.81-2.46-10.2-2.39-0.703 0.00566-1.41 0.0113-2.13 0.0172-2.23 0.0223-4.46 0.0725-6.69 0.123-1.52 0.0201-3.04 0.0383-4.56 0.0547-3.71 0.0439-7.42 0.113-11.1 0.195v-1h7v-2c-0.915-0.133-1.83-0.266-2.77-0.402-1.19-0.177-2.38-0.353-3.6-0.535-1.18-0.174-2.37-0.348-3.59-0.527-3.04-0.535-3.04-0.535-5.04-1.54 0.00524-1.12 0.0105-2.24 0.0159-3.39 0.0182-4.17 0.0296-8.34 0.0391-12.5 0.00502-1.8 0.0118-3.6 0.0205-5.41 0.0122-2.6 0.0178-5.19 0.0222-7.79 0.00516-0.8 0.0103-1.6 0.0156-2.42 4.25e-4 -4.27-0.263-8.26-1.11-12.5 1.58-0.217 1.58-0.217 3.19-0.438 2.18-0.321 4.35-0.675 6.5-1.12 2.31-0.438 2.31-0.438 6.31-0.438v-2h-5l4-2c-0.0348-0.626-0.0696-1.25-0.105-1.9-0.0271-0.817-0.0541-1.63-0.082-2.48-0.0348-0.812-0.0696-1.62-0.105-2.46 0.0967-0.714 0.193-1.43 0.293-2.16 1.49-0.99 1.49-0.99 3-2 2 3 2 3 3 9 4.95 0.33 9.9 0.66 15 1-1.66-8.2-3.49-16-6.13-24-4.52-15.8-3.75-37.7 3.01-52.7 3.96-6.17 7.86-9.35 15.1-7.31z" fill="#232426"/>
<path transform="translate(1011,682)" d="m0 0c2.98 2.25 4.56 4.6 6 8 0.812 6.8-0.426 13.4-2 20-0.33-0.99-0.66-1.98-1-3h-2v-2h-2c0.0887 1.98 0.197 3.96 0.312 5.94 0.058 1.1 0.116 2.2 0.176 3.34 1.16 8.43 4.56 15 9.07 22.2 0.494 0.801 0.989 1.6 1.5 2.43 3.73 6 6.2 8.39 12.9 11.1-0.33 0.66-0.66 1.32-1 2h3c0.942 2.83 1.1 4.38 1.02 7.29-0.0201 0.861-0.0402 1.72-0.0609 2.61-0.027 0.925-0.0541 1.85-0.0819 2.8-0.0354 1.43-0.0354 1.43-0.0715 2.88-0.0766 3.04-0.161 6.07-0.245 9.11-0.0532 2.06-0.106 4.12-0.158 6.17-0.129 5.05-0.265 10.1-0.404 15.1h2v2c0.66-0.33 1.32-0.66 2-1 1.52-0.0837 3.05-0.107 4.57-0.0977 0.896 0.00322 1.79 0.00645 2.71 0.00977 1.41 0.0126 1.41 0.0126 2.84 0.0254 0.945 0.00451 1.89 0.00902 2.86 0.0137 2.34 0.0118 4.67 0.0283 7.01 0.0488 0.66 1.32 1.32 2.64 2 4-2.15 2.15-7.12 1.19-10.1 1.21-1.89 0.0281-3.78 0.0567-5.66 0.0859-2.99 0.0412-5.97 0.0781-8.96 0.104-2.88 0.0276-5.75 0.0735-8.63 0.122-0.89 0.00325-1.78 0.00651-2.7 0.00986-4.9 0.097-7.84 0.535-11.9 3.47-3.45 0.423-5.22 0.529-8.12-1.44-0.619-0.516-1.24-1.03-1.88-1.56-4-1.23-8.09-1.34-12.2-1.56-0.745-0.0432-1.49-0.0864-2.26-0.131-1.83-0.106-3.66-0.207-5.49-0.307v-1c3.47-0.495 3.47-0.495 7-1-2.64-0.99-5.28-1.98-8-3-0.0247-6.35-0.0429-12.7-0.0549-19.1-0.00503-2.16-0.0119-4.32-0.0205-6.49-0.0121-3.11-0.0178-6.21-0.0222-9.32-0.00516-0.969-0.0103-1.94-0.0156-2.94-7.55e-5 -0.901-1.51e-4 -1.8-2.29e-4 -2.73-0.00222-0.793-0.00444-1.59-0.00673-2.4 0.12-2.07 0.12-2.07 1.12-5.07 0.99-0.495 0.99-0.495 2-1-0.33-0.66-0.66-1.32-1-2 6.43-0.495 6.43-0.495 13-1-1.5-4.92-1.5-4.92-4.44-7-5.42-6.35-5.87-14.9-5.44-23 1.19-11.4 2.83-23.4 11.6-31.5 4-2.59 6.49-2.92 11.3-2.5z" fill="#242527"/>
<path transform="translate(831,722)" d="m0 0c2.62 3.87 2.55 8.47 2 13-0.535 1.88-1.1 3.76-1.69 5.62-1.21 4.01-1.46 4.96 0 9.06 0.557 0.763 1.11 1.53 1.69 2.31h13c1.17 2.34 1.13 3.73 1.13 6.34 0.00315 0.898 0.0063 1.8 0.00955 2.72-0.00202 0.971-0.00405 1.94-0.00613 2.94 9.57e-4 0.994 0.00191 1.99 0.0029 3.01 6.81e-4 2.1-0.00117 4.2-0.00534 6.31-0.00535 3.23-5e-5 6.46 0.00635 9.69-6.61e-4 2.04-0.00194 4.08-0.00391 6.12 0.00202 0.973 0.00405 1.95 0.00613 2.95-0.00473 1.34-0.00473 1.34-0.00955 2.71-7.96e-4 0.791-0.00159 1.58-0.00241 2.4-0.127 1.82-0.127 1.82-1.13 2.82 0.99 0.495 0.99 0.495 2 1v2h-2v2c-0.82-0.0348-1.64-0.0696-2.48-0.105-1.62-0.0406-1.62-0.0406-3.27-0.082-1.07-0.0348-2.13-0.0696-3.23-0.105-3.39 0.329-4.43 1.22-7.02 3.29-6.33-0.327-6.33-0.327-9-3-2.67-0.243-2.67-0.243-5.62-0.125-1.5 0.0271-1.5 0.0271-3.04 0.0547-0.771 0.0232-1.54 0.0464-2.34 0.0703v-2h-4c-0.33-1.65-0.66-3.3-1-5v2h-2v-3h-2v2c-1.81 0.0269-3.62 0.0463-5.44 0.0625-1.01 0.0116-2.02 0.0232-3.06 0.0352-2.5-0.0977-2.5-0.0977-3.5-1.1-0.23-1.8-0.396-3.6-0.535-5.41-0.0874-1.13-0.175-2.26-0.265-3.42-1.4-19.6-1.4-19.6-1.51-28.2-0.0168-1.31-0.0335-2.62-0.0508-3.97 0.18-1.47 0.18-1.47 0.363-2.96 0.99-0.66 1.98-1.32 3-2v-2c2.61-2.72 3.91-3 7.75-3.19 1.07 0.0619 2.14 0.124 3.25 0.188v-9c0.99-0.33 1.98-0.66 3-1v10c1.65 0.33 3.3 0.66 5 1-0.103-1.07-0.206-2.14-0.312-3.25-0.0143-8.04 4.08-15.9 9.31-21.8 4.82-3.32 7.67-3.46 13-1z" fill="#232426"/>
<path transform="translate(793 872)" d="m0 0c0.832-0.00638 1.66-0.0128 2.52-0.0193 1.35-0.00167 1.35-0.00167 2.73-0.00337 0.93-0.00333 1.86-0.00666 2.82-0.0101 1.97-0.00507 3.95-0.00741 5.92-0.00725 3-0.00217 6-0.0203 8.99-0.0393 1.92-0.00294 3.84-0.00492 5.76-0.00586 0.888-0.00719 1.78-0.0144 2.69-0.0218 9.19 0.0331 19.4 1.27 26.3 7.96 7.68 8.82 7.86 16.9 7.24 28.3-0.916 6.38-4.46 9.94-9.06 14.2-7.74 4.64-16.4 5.2-25.3 5.09-1.03-0.00187-2.05-0.00375-3.11-0.00568-2.14-0.00667-4.29-0.0205-6.43-0.0412-3.3-0.0315-6.59-0.041-9.89-0.0469-2.09-0.00916-4.18-0.0195-6.27-0.0312-0.988-0.00425-1.98-0.0085-3-0.0129-0.905-0.00961-1.81-0.0192-2.74-0.0291-0.8-0.00683-1.6-0.0137-2.42-0.0207-1.83-0.14-1.83-0.14-2.83-1.14-0.0935-1.66-0.117-3.32-0.114-4.98 7.55e-5 -1.06 1.51e-4 -2.12 2.29e-4 -3.22 0.00516-1.15 0.0103-2.31 0.0156-3.5 0.00141-1.17 0.00283-2.35 0.00429-3.56 0.00562-3.77 0.0182-7.54 0.0309-11.3 0.00501-2.55 0.00958-5.1 0.0137-7.65 0.0111-6.26 0.0278-12.5 0.0488-18.8 2.27-1.13 3.52-1.13 6.03-1.15z" fill="#FEFEFE"/>
<path transform="translate(859 752)" d="m0 0c0.776-0.00258 1.55-0.00516 2.35-0.00781 2.02 0.133 2.02 0.133 4.02 1.13v7c1.62 0.318 3.25 0.629 4.88 0.938 0.905 0.174 1.81 0.348 2.74 0.527 8.52 1.35 16.9 1.67 25.5 1.6 1.05-0.00451 2.1-0.00902 3.19-0.0137 2.56-0.0116 5.12-0.028 7.69-0.0488-0.164-0.767-0.327-1.53-0.496-2.32-0.495-2.63-0.58-5.01-0.504-7.68 2.88-0.961 4.7-1.11 7.69-1.06 1.21 0.0135 1.21 0.0135 2.45 0.0273 0.922 0.0174 0.922 0.0174 1.86 0.0352 1.18 2.35 1.12 3.74 1.11 6.36-1.13e-4 1.35-1.13e-4 1.35-2.29e-4 2.73-0.00516 0.974-0.0103 1.95-0.0156 2.95-0.00141 0.996-0.00283 1.99-0.00429 3.02-0.00561 3.19-0.0182 6.38-0.0309 9.57-0.00501 2.16-0.00958 4.32-0.0137 6.48-0.011 5.3-0.0278 10.6-0.0488 15.9-3.81 0.0289-7.62 0.0468-11.4 0.0625-1.09 0.00838-2.18 0.0168-3.3 0.0254-1.03 0.00322-2.07 0.00645-3.13 0.00977-0.958 0.00524-1.92 0.0105-2.9 0.0159-2.22-0.114-2.22-0.114-3.22-1.11-0.159-2.29-0.251-4.58-0.316-6.88-0.0208-0.687-0.0416-1.37-0.063-2.08-0.0656-2.2-0.124-4.4-0.183-6.6-0.0432-1.49-0.0868-2.98-0.131-4.47-0.107-3.66-0.209-7.31-0.307-11-1.65-0.0269-3.29-0.0463-4.94-0.0625-0.917-0.0116-1.83-0.0232-2.78-0.0352-2.25-0.162-2.25-0.162-3.29 1.1-0.159 2.29-0.251 4.58-0.316 6.88-0.0208 0.687-0.0416 1.37-0.063 2.08-0.0656 2.2-0.124 4.4-0.183 6.6-0.0432 1.49-0.0868 2.98-0.131 4.47-0.107 3.66-0.209 7.31-0.307 11-4.52 0.0247-9.04 0.0429-13.6 0.0549-1.54 0.00503-3.08 0.0119-4.62 0.0205-2.21 0.0121-4.42 0.0178-6.63 0.0222-1.03 0.00774-1.03 0.00774-2.09 0.0156-4.88 5.75e-4 -4.88 5.75e-4 -7.11-1.11v-45c3.2-0.8 5.41-1.14 8.62-1.12z" fill="#FDFDFE"/>
<path transform="translate(951 725)" d="m0 0c3.66 1.31 5.21 2.89 7.62 5.94 1.26 2.93 2.14 5.93 3 9 0.588 1.76 0.588 1.76 1.19 3.56 0.268 0.804 0.536 1.61 0.812 2.44 1.26 0.0909 1.26 0.0909 2.55 0.184 1.64 0.126 1.64 0.126 3.32 0.254 1.64 0.122 1.64 0.122 3.3 0.246 2.82 0.316 2.82 0.316 4.82 1.32v-10h3c2.3 3.44 2.54 5.94 3 10h10v1c-3.3 0.33-6.6 0.66-10 1v2h12v1h-13c0.33 14.9 0.66 29.7 1 45 4.62 0.66 9.24 1.32 14 2v1c-3.47 0.495-3.47 0.495-7 1 2.97 0.33 5.94 0.66 9 1v1c-1.65 0.0219-1.65 0.0219-3.33 0.0442-4.09 0.058-8.17 0.135-12.3 0.218-1.77 0.0332-3.53 0.0613-5.3 0.084-2.54 0.0336-5.08 0.0859-7.63 0.142-0.789 0.00639-1.58 0.0128-2.39 0.0194-4.38 0.117-6.82 0.562-10.1 3.49-3.51-0.257-5.03-1.02-8-3-2.52-0.367-2.52-0.367-5.32-0.414-1.03-0.0387-2.06-0.0773-3.12-0.117-1.07-0.0309-2.14-0.0619-3.25-0.0938-1.08-0.0387-2.17-0.0773-3.28-0.117-2.68-0.0943-5.35-0.18-8.03-0.258v-1c10.9-0.495 10.9-0.495 22-1-1.49-0.99-1.49-0.99-3-2 1.49-0.495 1.49-0.495 3-1-0.217-0.941-0.433-1.88-0.656-2.85-0.278-1.25-0.557-2.49-0.844-3.77-0.418-1.84-0.418-1.84-0.844-3.73-0.597-3.32-0.78-6.29-0.656-9.65h9c2.01 4.02 2.62 7.38 3.12 11.8 0.289 2.39 0.577 4.78 0.875 7.25 5.94 0.33 11.9 0.66 18 1-0.33-15.5-0.66-31-1-47h-13c0.763 0.742 1.53 1.49 2.31 2.25 2.13 2.18 3.94 4.27 5.69 6.75-0.66 1.32-1.32 2.64-2 4h-3c0.495 1.64 0.495 1.64 1 3.31 1 3.69 1 3.69 1 6.69-7.29 1.91-13.5 2.05-21 1-0.33 0.66-0.66 1.32-1 2v-2c-0.87-0.182-0.87-0.182-1.76-0.367-9.88-2.12-9.88-2.12-13.2-3.63-1.12-2.54-1.07-3.76-0.258-6.44 0.374-0.846 0.748-1.69 1.13-2.56 1.34-3.06 2.31-5.73 3.12-9-2.97-0.33-5.94-0.66-9-1v-1h9v-2c-4.46-0.99-4.46-0.99-9-2v-1c3.63-0.33 7.26-0.66 11-1 0.242-0.869 0.485-1.74 0.734-2.63 5.38-18.5 5.38-18.5 12.6-18.3z" fill="#22252B"/>
<path transform="translate(645,885)" d="m0 0c2.29 0.938 3.71 1.55 5.07 3.66 0.273 0.672 0.547 1.34 0.828 2.04 0.326 0.782 0.653 1.56 0.989 2.37 0.345 0.864 0.69 1.73 1.05 2.62 0.785 1.9 1.57 3.8 2.36 5.7 0.427 1.05 0.854 2.09 1.29 3.17 1.55 3.77 3.13 7.52 4.71 11.3 1.15 2.72 2.3 5.45 3.45 8.17 0.274 0.649 0.548 1.3 0.83 1.97 2.83 6.72 5.62 13.4 8.31 20.2 0.408 1.02 0.815 2.05 1.24 3.11 0.874 2.71 0.874 2.71 0.874 6.71-29.2-0.495-29.2-0.495-59-1 0.783-4.7 1.58-7.82 3.37-12.1 0.731-1.75 0.731-1.75 1.48-3.54 0.53-1.25 1.06-2.5 1.59-3.75 0.543-1.29 1.09-2.59 1.63-3.88 1.1-2.64 2.21-5.27 3.32-7.9 1.5-3.56 2.98-7.13 4.46-10.7 0.439-1.06 0.878-2.12 1.33-3.21 0.814-1.97 1.63-3.93 2.44-5.9 2.66-6.41 5.48-12.7 8.39-19z" fill="#FDFDFE"/>
<path transform="translate(931 753)" d="m0 0c0.901 0.195 1.8 0.389 2.73 0.59 0.687 0.156 1.37 0.312 2.08 0.473-0.477 5.53-1.5 9.01-4 14 0.362 2.14 0.362 2.14 1 4 12.6 3.8 22.9 4.52 36 3-0.66-3.3-1.32-6.6-2-10 1.32-0.66 2.64-1.32 4-2-1.36-4.46-3.34-6.21-7-9v-2h13c1.18 2.35 1.12 3.74 1.11 6.36-7.55e-5 0.901-1.51e-4 1.8-2.29e-4 2.73-0.00516 0.974-0.0103 1.95-0.0156 2.95-0.00141 0.996-0.00283 1.99-0.00429 3.02-0.00561 3.19-0.0182 6.38-0.0309 9.57-0.00501 2.16-0.00958 4.32-0.0137 6.48-0.011 5.3-0.0278 10.6-0.0488 15.9-2.63 0.0269-5.25 0.0468-7.88 0.0625-0.746 0.00838-1.49 0.0168-2.26 0.0254-5.64 0.0254-5.64 0.0254-7.86-1.09-0.616-2.47-1.12-4.87-1.56-7.38-0.968-5.37-0.968-5.37-2.44-10.6-2.97-0.33-5.94-0.66-9-1 0.217 0.941 0.433 1.88 0.656 2.85 0.278 1.25 0.557 2.49 0.844 3.77 0.278 1.23 0.557 2.46 0.844 3.73 0.656 3.65 0.656 3.65 0.656 9.65-7.92 0.33-15.8 0.66-24 1v-2h-2c-0.33-14.9-0.66-29.7-1-45 3.38-1.13 4.77-0.818 8.19-0.0625z" fill="#FDFDFE"/>
<path transform="translate(1064 759)" d="m0 0c1.26 1.11 2.51 2.23 3.75 3.35 0.649 0.552 1.3 1.1 1.97 1.67 4.55 4.11 4.55 4.11 4.75 7.7-0.572 1.61-0.572 1.61-1.16 3.25-0.273 0.789-0.545 1.58-0.826 2.39-0.988 2.79-2.04 5.54-3.11 8.3-0.36 0.949-0.721 1.9-1.09 2.88-1.45 3.76-2.73 7.07-4.97 10.4-2.52 0.432-2.52 0.432-5.66 0.512-1.12 0.0354-2.24 0.0709-3.4 0.107-1.76 0.0338-1.76 0.0338-3.56 0.0684-1.18 0.0342-2.37 0.0683-3.59 0.104-2.93 0.0827-5.86 0.152-8.79 0.209v-2h-2v-45c18.6-1.55 18.6-1.55 27.7 6.02z" fill="#FDFDFE"/>
<path transform="translate(848,740)" d="m0 0h2c0.66 1.98 1.32 3.96 2 6 3.96 0.33 7.92 0.66 12 1 0.495 2.48 0.495 2.48 1 5-0.759 0.0606-1.52 0.121-2.3 0.184-1.49 0.126-1.49 0.126-3.01 0.254-0.986 0.0812-1.97 0.162-2.99 0.246-2.79 0.235-2.79 0.235-5.7 1.32-0.33 14.5-0.66 29-1 44 11.2 0.33 22.4 0.66 34 1-0.0791-10.1-0.0791-10.1-0.18-20.2-5e-3 -1.25-0.00999-2.51-0.0151-3.8-0.0157-1.93-0.0157-1.93-0.0317-3.9 0.227-3.07 0.227-3.07 2.23-5.07 2.35-0.23 2.35-0.23 5.06-0.188 0.898 0.00645 1.8 0.0129 2.72 0.0195 2.21 0.168 2.21 0.168 3.21 1.17 0.159 2.29 0.251 4.58 0.316 6.88 0.0208 0.687 0.0416 1.37 0.063 2.08 0.0656 2.2 0.124 4.4 0.183 6.6 0.0432 1.49 0.0868 2.98 0.131 4.47 0.108 3.66 0.207 7.31 0.307 11 7.59 0.33 15.2 0.66 23 1-0.33-15.2-0.66-30.4-1-46 1.32 0.33 2.64 0.66 4 1v44h2v2c0.99-0.33 1.98-0.66 3-1 3.16-0.25 6.33-0.231 9.5-0.25 0.868-0.0206 1.74-0.0412 2.63-0.0625 0.834-0.00516 1.67-0.0103 2.53-0.0156 0.761-0.00935 1.52-0.0187 2.31-0.0283 2.54 0.444 3.42 1.41 5.04 3.36-1 1-1 1-3.13 1.11-1.37-0.00786-1.37-0.00786-2.78-0.0159-0.989-0.00322-1.98-0.00645-3-0.00977-1.04-0.00838-2.08-0.0168-3.15-0.0254-1.04-0.00451-2.09-0.00902-3.17-0.0137-2.59-0.0118-5.18-0.0283-7.77-0.0488-0.33 0.66-0.66 1.32-1 2-0.858-0.0157-1.72-0.0314-2.6-0.0476-3.19-0.0512-6.38-0.0888-9.57-0.117-1.38-0.0151-2.76-0.0355-4.14-0.0615-1.99-0.0365-3.97-0.0518-5.96-0.0667-1.19-0.0157-2.39-0.0314-3.62-0.0476-3.43 0.375-4.51 1.22-7.12 3.34-4.21-0.221-6.48-0.65-10-3-3.19-0.261-3.19-0.261-6.83-0.16-0.667 0.0052-1.33 0.0104-2.02 0.0158-2.13 0.0178-4.27 0.0489-6.4 0.0819-2.12 0.0278-4.24 0.0525-6.36 0.0712-1.93 0.0177-3.87 0.0452-5.8 0.0731-3.61-0.0821-7.03-0.499-10.6-1.08 0.99-0.495 0.99-0.495 2-1v-2c-1.49-0.495-1.49-0.495-3-1 0.495-0.495 0.495-0.495 1-1 0.093-1.47 0.117-2.95 0.114-4.43-1.13e-4 -1.41-1.13e-4 -1.41-2.29e-4 -2.85-0.00516-1.02-0.0103-2.05-0.0156-3.1-0.00212-1.56-0.00212-1.56-0.00429-3.16-0.00562-3.34-0.0182-6.68-0.0309-10-0.00501-2.26-0.00958-4.52-0.0137-6.78-0.0111-5.55-0.0278-11.1-0.0488-16.7-0.904 0.119-1.81 0.237-2.74 0.359-1.18 0.129-2.36 0.258-3.57 0.391-1.76 0.209-1.76 0.209-3.55 0.422-3.14-0.172-3.14-0.172-5.12-1.97-1.02-2.2-1.02-2.2-0.0195-5.2v2c0.66-0.33 1.32-0.66 2-1 2.21-0.0709 4.42-0.0842 6.62-0.0625 1.19 0.00902 2.38 0.018 3.6 0.0273 0.915 0.0116 1.83 0.0232 2.77 0.0352 0.66-2.31 1.32-4.62 2-7z" fill="#232427"/>
<path transform="translate(707,752)" d="m0 0c3.37 2.47 5.04 5.36 7 9 0.804 1.01 1.61 2.02 2.44 3.06 4.89 9.05 1.33 25 0.562 34.9-3.97 0.0247-7.94 0.0428-11.9 0.0549-1.35 0.00504-2.7 0.0119-4.05 0.0205-1.94 0.0121-3.88 0.0173-5.82 0.0222-1.75 0.00786-1.75 0.00786-3.54 0.0159-2.68-0.114-2.68-0.114-3.68-1.11-0.0929-1.41-0.117-2.83-0.114-4.24 7.55e-5 -0.901 1.51e-4 -1.8 2.29e-4 -2.73 0.00516-0.979 0.0103-1.96 0.0156-2.97 0.00141-0.997 0.00283-1.99 0.00429-3.02 0.00562-3.2 0.0182-6.4 0.0309-9.6 0.00501-2.16 0.00958-4.33 0.0137-6.49 0.0111-5.32 0.0278-10.6 0.0488-15.9 6.3-1.67 12.6-2.07 19-1z" fill="#FEFEFE"/>
<path transform="translate(1110,753)" d="m0 0c1 1 1 1 1.12 2.83-0.00222 0.797-0.00444 1.59-0.00673 2.42-7.55e-5 0.901-1.51e-4 1.8-2.29e-4 2.73-0.00516 0.979-0.0103 1.96-0.0156 2.97-0.00141 0.997-0.00283 1.99-0.00429 3.02-0.00562 3.2-0.0182 6.4-0.0309 9.6-0.00501 2.16-0.00958 4.33-0.0137 6.49-0.0102 5.32-0.0298 10.6-0.0488 15.9h-32c-1.38-4.14 0.201-6.82 1.75-10.7 0.266-0.683 0.531-1.37 0.805-2.07 0.538-1.38 1.08-2.76 1.62-4.15 3.54-8.27 3.54-8.27 3.82-17.1-2.41-4.17-4.99-7.32-9-10v-2c23.4-1.5 23.4-1.5 32 0z" fill="#FDFDFE"/>
<path transform="translate(641 1048)" d="m0 0c1.94 0.688 1.94 0.688 2.94 2.69 0.0896 1.48 0.118 2.97 0.114 4.45-7.55e-5 0.921-1.51e-4 1.84-2.29e-4 2.79-0.00516 0.996-0.0103 1.99-0.0156 3.02-0.00141 1.02-0.00283 2.04-0.00429 3.09-0.00561 3.26-0.0182 6.52-0.0309 9.78-0.00501 2.21-0.00958 4.41-0.0137 6.62-0.011 5.42-0.0278 10.8-0.0488 16.3h-7c-0.33-0.66-0.66-1.32-1-2-1.14 0.495-1.14 0.495-2.31 1-6.27 1.7-12.2 2.12-18.2-0.562-4.69-4.57-5.67-8.65-5.88-15 0.221-6.46 1.95-10.3 6.62-14.8 3.53-2.8 6.14-3.85 10.8-3.69 2.83 1.08 5.41 2.43 8 4-0.0232-0.808-0.0464-1.62-0.0703-2.45-0.018-1.07-0.0361-2.14-0.0547-3.24-0.0232-1.06-0.0464-2.11-0.0703-3.2 0.199-3.17 0.747-5.3 2.2-8.11 2-1 2-1 4.06-0.688z" fill="#1A325C"/>
<path transform="translate(374 1049)" d="m0 0c2.58 0.333 2.58 0.333 4.11 1.71 4.41 7.06 7.92 14.5 11.3 22.1 1.02 2.25 2.06 4.49 3.1 6.73 0.657 1.44 1.31 2.89 1.97 4.33 0.309 0.663 0.619 1.33 0.937 2.01 1.78 3.99 2.46 7.12 2.13 11.5h-6c-0.838-1.46-1.67-2.91-2.5-4.38-0.464-0.812-0.928-1.62-1.41-2.46-1.09-2.16-1.09-2.16-1.09-4.16h-24c-0.99 2.97-1.98 5.94-3 9-2 2-2 2-5.12 2.12-0.949-0.0412-1.9-0.0825-2.88-0.125-1.43-4.28 0.491-6.93 2.31-10.8 0.357-0.779 0.713-1.56 1.08-2.36 0.778-1.7 1.56-3.39 2.34-5.09 1.32-2.87 2.62-5.76 3.92-8.64 0.885-1.97 1.77-3.94 2.66-5.91 0.42-0.936 0.84-1.87 1.27-2.84 1.12-2.46 2.26-4.91 3.41-7.35 0.489-1.04 0.977-2.07 1.48-3.14 1.52-1.86 1.52-1.86 3.94-2.2z" fill="#1A325C"/>
<path transform="translate(680 1066)" d="m0 0c4.77 5.41 6.71 9.59 6.54 16.8-0.66 5.5-2.93 9.19-6.75 13.1-5.92 2.49-12.7 2.76-18.8 0.77-4.44-2.35-7.51-5.81-9.74-10.3-0.767-5.76-0.865-10.6 2.62-15.4 3.7-4.23 7.23-7.01 12.8-8.44 5.08-0.175 9.43-0.0512 13.4 3.43z" fill="#1A325B"/>
<path transform="translate(509 1063)" d="m0 0c4.38 2.89 8.01 6.36 9.81 11.4 0.0412 0.846 0.0825 1.69 0.125 2.56 0.0825 1.28 0.165 2.56 0.25 3.88-0.0721 4.25-1.17 7.39-3.25 11.1-5.66 5.25-9.85 5.47-17.4 5.4-5.23-0.59-8.26-2.35-11.6-6.4-3.02-4.77-3.47-9.39-2.57-14.9 1.7-6.29 6.15-9.95 11.6-13.1 4.62-1.54 8.45-1.54 13.1 0.0625z" fill="#1A325C"/>
<path transform="translate(718 1065)" d="m0 0c4.75 4.2 7.29 8.83 7.78 15.2-0.209 5.07-1.35 9.78-4.36 13.9-4.67 4.17-10.4 3.97-16.3 3.73-4.77-0.671-8.1-1.91-11.4-5.48-2.97-4.76-4.06-10.5-3-16 1.87-5.64 4.54-9.2 9.75-12.1 6.47-2.78 11.3-2.31 17.6 0.75z" fill="#1A335D"/>
<path transform="translate(772,753)" d="m0 0c0.967 3.53 1.18 7 1.32 10.6 0.042 1.08 0.084 2.16 0.127 3.28 0.0392 1.14 0.0785 2.28 0.119 3.45 0.0425 1.16 0.0849 2.32 0.129 3.52 0.29 8.37 0.433 16.7 0.309 25.1-3.31 0.0289-6.62 0.0468-9.94 0.0625-0.946 0.00838-1.89 0.0168-2.87 0.0254-1.35 0.00483-1.35 0.00483-2.72 0.00977-1.25 0.00786-1.25 0.00786-2.52 0.0159-1.95-0.114-1.95-0.114-2.95-1.11-1.45-7.96-1.15-16.2-1.13-24.3 0.00542-2.2-6.87e-6 -4.39-0.00635-6.59 6.6e-4 -1.4 0.00194-2.81 0.00391-4.21 0.00169-1.89 0.00169-1.89 0.00342-3.82 0.129-3.12 0.129-3.12 1.13-6.12 2.79-0.194 5.58-0.381 8.38-0.562 0.794-0.0561 1.59-0.112 2.41-0.17 5.99-0.381 5.99-0.381 8.22 0.732z" fill="#FEFEFE"/>
<path transform="translate(1074,725)" d="m0 0h2c3 5.62 3 5.62 3 9 5.26 2.17 10.6 3.95 16 5.78 2.98 1.22 2.98 1.22 3.98 3.22 1.82 0.938 3.68 1.8 5.56 2.62 1.01 0.446 2.02 0.892 3.07 1.35 0.782 0.338 1.56 0.675 2.37 1.02v-3c1.32 0.33 2.64 0.66 4 1 1.67 6.55 2.28 12.5 2.23 19.2-4.58e-4 0.945-9.16e-4 1.89-0.00139 2.86-3e-3 1.98-0.0108 3.97-0.0233 5.95-0.0183 3.02-0.0205 6.04-0.0203 9.06-0.00492 1.94-0.0107 3.88-0.0176 5.81-0.00111 0.893-0.00223 1.79-0.00337 2.71-0.0391 5.21-0.415 10.2-1.16 15.4-1.32-0.33-2.64-0.66-4-1v-2c-1.2 0.108-1.2 0.108-2.43 0.219-9.88 0.806-19.7 0.882-29.6 0.781-0.33-2.31-0.66-4.62-1-7 16.3 0.495 16.3 0.495 33 1-0.33-14.9-0.66-29.7-1-45-4.68-0.668-8.92-1.16-13.6-1.32-1.2-0.0419-2.39-0.0838-3.62-0.127-1.23-0.0393-2.46-0.0786-3.72-0.119-1.88-0.0648-1.88-0.0648-3.81-0.131-3.09-0.106-6.17-0.208-9.26-0.307 0.66-0.99 1.32-1.98 2-3 2.52-0.341 2.52-0.341 5.66-0.293 1.12 0.00967 2.24 0.0193 3.4 0.0293 1.18 0.0251 2.35 0.0503 3.56 0.0762 1.18 0.0135 2.37 0.0271 3.59 0.041 2.93 0.0354 5.86 0.0849 8.79 0.146v-2c-0.99 0.33-1.98 0.66-3 1-0.33-0.33-0.66-0.66-1-1-2.13-0.0755-4.27-0.0831-6.41-0.0625-1.95 0.0116-1.95 0.0116-3.94 0.0234-1.38 0.0124-2.77 0.0255-4.15 0.0391-2.7 0.0265-5.4 0.0465-8.09 0.0625-1.2 0.0116-2.41 0.0232-3.65 0.0352-2.76-0.0977-2.76-0.0977-3.76-1.1-0.662-5.16 0.989-8.91 3.03-13.5 0.98-2.48 1.53-4.84 1.97-7.46z" fill="#202837"/>
<path transform="translate(983,753)" d="m0 0h17c2.25 5.62 2.25 5.62 2.23 9.33-1.51e-4 0.82-3.02e-4 1.64-4.58e-4 2.49-0.0103 0.871-0.0206 1.74-0.0313 2.64-0.00283 0.903-0.00566 1.81-0.00858 2.74-0.0112 2.87-0.0363 5.75-0.0617 8.62-0.01 1.95-0.0192 3.9-0.0273 5.86-0.022 4.78-0.0565 9.55-0.0977 14.3-2.98 0.0268-5.96 0.0468-8.94 0.0625-0.85 0.00838-1.7 0.0168-2.58 0.0254-0.809 0.00322-1.62 0.00645-2.45 0.00977-0.749 0.00524-1.5 0.0105-2.27 0.0159-1.77-0.114-1.77-0.114-2.77-1.11-0.0929-1.41-0.117-2.83-0.114-4.24 7.55e-5 -0.901 1.51e-4 -1.8 2.29e-4 -2.73 0.00516-0.979 0.0103-1.96 0.0156-2.97 0.00141-0.997 0.00283-1.99 0.00429-3.02 0.00562-3.2 0.0182-6.4 0.0309-9.6 0.00501-2.16 0.00958-4.33 0.0137-6.49 0.0111-5.32 0.0283-10.6 0.0488-15.9z" fill="#FEFEFE"/>
<path transform="translate(839 752)" d="m0 0c1.89 0.0135 1.89 0.0135 3.83 0.0273 0.964 0.0116 1.93 0.0232 2.92 0.0352 1.18 2.35 1.12 3.74 1.11 6.36-7.55e-5 0.901-1.51e-4 1.8-2.29e-4 2.73-0.00516 0.974-0.0103 1.95-0.0156 2.95-0.00141 0.996-0.00283 1.99-0.00429 3.02-0.00561 3.19-0.0182 6.38-0.0309 9.57-0.00501 2.16-0.00958 4.32-0.0137 6.48-0.011 5.3-0.0278 10.6-0.0488 15.9-2.12 0.0269-4.25 0.0464-6.38 0.0625-1.18 0.0116-2.37 0.0232-3.59 0.0352-3.04-0.0977-3.04-0.0977-5.04-1.1-0.395-1.98-0.395-1.98-0.598-4.55-0.0793-0.926-0.159-1.85-0.24-2.81-0.0741-0.975-0.148-1.95-0.225-2.96-0.155-1.91-0.312-3.83-0.473-5.74-0.0658-0.852-0.132-1.7-0.199-2.58-0.247-2.2-0.671-4.23-1.27-6.37 1.65-0.33 3.3-0.66 5-1-0.742-5.23-3.16-8.99-5.82-13.5-1.18-2.52-1.18-2.52-0.18-5.52 3.54-1.51 7.47-1.1 11.2-1.06z" fill="#FDFDFE"/>
<path transform="translate(1027,652)" d="m0 0c5.01 3.16 7.36 6.31 9 12 0.401 4.84-0.72 8.1-3.75 11.9-3.6 3.75-6.41 4.88-11.6 5.56-4.86-0.577-8.04-2.2-11.7-5.44-2.96-4.67-3.48-8.51-2.64-13.9 1.4-4.73 4.39-7.27 8.39-10.1 4.38-1.43 7.83-1.35 12.2-0.0625z" fill="#242323"/>
<path transform="translate(729,652)" d="m0 0c4.29 2.31 7.49 4.81 10 9 1.35 5.32 1.5 10-1 15-4.76 5.64-4.76 5.64-9 6-6.45 0.528-9.73-0.18-15-4-3.44-3.77-3.52-7.67-3.34-12.6 0.634-4.53 2.67-7.09 6.18-9.9 4.03-2.77 7.17-4.5 12.2-3.53z" fill="#242323"/>
<path transform="translate(531 1062)" d="m0 0c1.94 0.688 1.94 0.688 2.94 2.69 0.209 1.73 0.368 3.46 0.5 5.19 0.124 1.54 0.124 1.54 0.25 3.11 0.167 2.18 0.334 4.35 0.5 6.53 0.124 1.54 0.124 1.54 0.25 3.11 0.108 1.42 0.108 1.42 0.219 2.87 0.0507 2.17 0.0507 2.17 1.28 3.19 4.03 0.325 4.03 0.325 8 0 2.1-3.15 2.25-3.93 2.27-7.53 0.0206-0.875 0.0412-1.75 0.0625-2.65 0.026-1.84 0.0442-3.67 0.0547-5.51 0.178-6.72 0.178-6.72 2.51-9.95 2.1-1.36 2.1-1.36 4.29-1.24 1.81 0.875 1.81 0.875 2.81 2.88 0.0864 2.41 0.116 4.79 0.0977 7.2-0.00141 0.707-0.00283 1.41-0.00429 2.14-0.0056 2.26-0.0182 4.52-0.0309 6.79-0.00501 1.53-0.00958 3.07-0.0137 4.6-0.011 3.76-0.0283 7.52-0.0488 11.3-3.89 0.0407-7.25-0.0266-11-1-0.99 0.495-0.99 0.495-2 1-4.91 0.411-9.47 0.626-14.1-1.25-4.09-3.7-4.28-7.63-4.57-12.9-0.04-0.889-0.0799-1.78-0.121-2.69-0.0554-0.877-0.111-1.75-0.168-2.66-0.262-5.3-0.019-9.56 1.92-14.5 2-1 2-1 4.06-0.688z" fill="#1A335D"/>
<path transform="translate(453 1063)" d="m0 0c2.98 2.14 3.91 4.99 5.2 8.3 0.251 0.617 0.503 1.23 0.762 1.87 1.1 2.72 2.15 5.43 3.11 8.21 0.333 0.697 0.665 1.39 1.01 2.11 0.99 0.33 1.98 0.66 3 1 0.17-0.534 0.34-1.07 0.516-1.62 5.25-16.2 5.25-16.2 8.48-19.4 2.62 0.375 2.62 0.375 5 1 0.926 2.47 1.29 4.26 0.316 6.76-0.703 1.35-1.42 2.69-2.15 4.02-1.18 2.24-2.12 4.48-3.04 6.84-2.12 5.42-4.43 10.7-6.74 16.1-1.11 2.64-2.12 5.27-3.07 7.97-1.21 3.06-1.87 4.29-4.31 6.31-2.32-0.282-3.91-0.954-6-2 0.33-1.11 0.66-2.23 1-3.38 2.48-10.3 0.305-17.5-4.12-26.9-0.977-2.09-1.94-4.19-2.88-6.3-0.429-0.916-0.859-1.83-1.3-2.77-0.867-3.28-0.329-4.69 1.31-7.61 2-1 2-1 3.93-0.488z" fill="#1A335D"/>
<path transform="translate(1032,753)" d="m0 0c1 1 1 1 1.12 2.83-0.00333 1.2-0.00333 1.2-0.00673 2.42-7.55e-5 0.901-1.51e-4 1.8-2.29e-4 2.73-0.00516 0.979-0.0103 1.96-0.0156 2.97-0.00141 0.997-0.00283 1.99-0.00429 3.02-0.00562 3.2-0.0182 6.4-0.0309 9.6-0.00501 2.16-0.00958 4.33-0.0137 6.49-0.0111 5.32-0.0278 10.6-0.0488 15.9-2.15 0.0269-4.29 0.0463-6.44 0.0625-1.19 0.0116-2.39 0.0232-3.62 0.0352-2.94-0.0977-2.94-0.0977-3.94-1.1-0.122-1.38-0.178-2.77-0.205-4.15-0.0199-0.881-0.0399-1.76-0.0604-2.67-0.0251-1.44-0.0251-1.44-0.0506-2.9-0.0208-0.975-0.0416-1.95-0.063-2.96-0.0656-3.13-0.124-6.26-0.183-9.38-0.0432-2.12-0.0868-4.23-0.131-6.35-0.107-5.2-0.209-10.4-0.307-15.6 9.41-1.22 9.41-1.22 14-1z" fill="#FDFDFE"/>
<path transform="translate(897,657)" d="m0 0c4.78 2.44 7.67 5.16 10 10 0.834 4.35 1.03 8.2-1.21 12.1-2.59 3.15-5 5.28-8.79 6.87-2.56 0.125-2.56 0.125-5 0h-3c-1.02-0.979-2.02-1.98-3-3-0.99-0.33-1.98-0.66-3-1v-2h-2c-2.36-3.69-2.5-6.69-2-11 3.44-7.9 8.9-13.3 18-12z" fill="#242323"/>
<path transform="translate(742,752)" d="m0 0c1.98 0.66 3.96 1.32 6 2v45c-12 0-12 0-14-1 0.00524-1.12 0.0105-2.24 0.0159-3.39 0.0182-4.17 0.0296-8.34 0.0391-12.5 0.00502-1.8 0.0118-3.6 0.0205-5.41 0.0122-2.6 0.0178-5.19 0.0222-7.79 0.00516-0.8 0.0103-1.6 0.0156-2.42 4.25e-4 -4.27-0.263-8.26-1.11-12.5 1.11-0.144 2.23-0.289 3.38-0.438 3.45-0.346 3.45-0.346 5.62-1.56z" fill="#FDFDFE"/>
<path transform="translate(791 753)" d="m0 0c1.09 0.00258 2.19 0.00516 3.31 0.00781 1.09-0.00258 2.19-0.00516 3.31-0.00781 2.69 0.133 2.69 0.133 3.69 1.13 0.0929 1.41 0.117 2.83 0.114 4.24-7.55e-5 0.901-1.51e-4 1.8-2.29e-4 2.73-0.00516 0.979-0.0103 1.96-0.0156 2.97-0.00141 0.997-0.00283 1.99-0.00429 3.02-0.00562 3.2-0.0182 6.4-0.0309 9.6-0.00501 2.16-0.00958 4.33-0.0137 6.49-0.0111 5.32-0.0278 10.6-0.0488 15.9-1.81 0.0269-3.62 0.0463-5.44 0.0625-1.01 0.0116-2.02 0.0232-3.06 0.0352-2.5-0.0977-2.5-0.0977-3.5-1.1-0.23-1.8-0.396-3.6-0.535-5.41-0.0873-1.13-0.175-2.26-0.264-3.42-0.0868-1.21-0.174-2.42-0.263-3.67-0.133-1.83-0.133-1.83-0.269-3.7-0.48-6.98-0.855-13.9-0.856-20.9-0.00109-1.05-0.00109-1.05-0.0022-2.11 0.0654-5.71 0.0654-5.71 3.88-5.9z" fill="#FEFEFE"/>
<path transform="translate(796,635)" d="m0 0c3.65 2.86 5.87 5.49 7 10 0.562 6.45 0.119 11.9-3.62 17.4-2.72 1.86-4.85 2.44-8.15 2.27-5.36-1.55-9.3-6.03-12.5-10.4-2.19-4.13-1.81-7.81-0.633-12.1 1.59-3.53 3.71-4.98 6.94-7.09 3.86-1.29 7.14-1.1 11 0z" fill="#242323"/>
<path transform="translate(1221,689)" d="m0 0c4.88 3.97 7.69 8.14 8.38 14.4-0.571 5.43-2.15 9.7-6.06 13.6-3.75 2.26-5.27 2.44-9.42 1.57-4.11-1.25-6.25-2.65-8.7-6.2-1.93-5.47-1.96-10.1-0.0625-15.6 4.08-5.98 8.51-9.77 15.9-7.75z" fill="#242323"/>
<path transform="translate(414,1052)" d="m0 0c0.66 2.97 1.32 5.94 2 9 2.97 0.33 5.94 0.66 9 1 0.381 1.99 0.713 3.99 1 6-1.93 1.93-5.39 1.63-8 2-2.12 2.12-1.42 6.62-1.56 9.56-0.0432 0.806-0.0864 1.61-0.131 2.44-0.106 2-0.207 4-0.307 5.99 0.71 0.133 1.42 0.266 2.15 0.402 0.919 0.177 1.84 0.353 2.79 0.535 0.917 0.174 1.83 0.348 2.78 0.527 2.29 0.535 2.29 0.535 3.29 1.54 0.125 2.5 0.125 2.5 0 5-1.78 1.78-4.27 1.3-6.69 1.38-6.85-0.0815-6.85-0.0815-9.94-2.38-5.58-7.05-4.91-16.4-5.38-25-2.48-0.99-2.48-0.99-5-2 0.33-1.65 0.66-3.3 1-5 1.65-0.33 3.3-0.66 5-1 0.103-1.09 0.206-2.19 0.312-3.31 0.688-3.69 0.688-3.69 2-5.62 1.69-1.06 1.69-1.06 5.69-1.06z" fill="#1A335D"/>
<path transform="translate(779,1063)" d="m0 0c3.5 1.81 3.5 1.81 6 4v4c-0.99-0.165-1.98-0.33-3-0.5-4.03-0.585-7.93-0.571-12-0.5l-2 4c3.03 2.02 4.94 2.54 8.44 3.31 3.52 0.942 5.39 1.54 8.25 3.88 1.88 4.02 1.88 6.38 1.31 10.8-2.21 2.97-3.49 3.83-7 5-8.11 0.677-14.1 0.36-21-4 0.495-1.48 0.495-1.48 1-3 4.79-0.102 9.33 0.217 14.1 0.879 2 0.288 2 0.288 3.92-0.879-0.495-2.47-0.495-2.47-1-5-0.808-0.242-1.62-0.485-2.45-0.734-12.8-4.02-12.8-4.02-15.6-9.14 0-3.58 0.907-5.19 3-8.12 5.98-4.26 10.9-6.01 18-4z" fill="#1A3259"/>
<path transform="translate(1102,680)" d="m0 0c3.31 2.59 5.43 5.12 7 9 0.331 6.59-1.22 11.7-5 17-3.77 2.51-5.53 2.53-10 2-4.69-2.88-6.93-5.71-8.6-10.9-0.856-4.36 0.0413-7.83 1.85-11.8 3.86-4.96 8.64-6.59 14.8-5.25z" fill="#242323"/>
<path transform="translate(806,753)" d="m0 0c0.99 0.33 1.98 0.66 3 1 0.961 2.31 1.73 4.49 2.44 6.88 0.432 1.39 0.866 2.77 1.3 4.16 0.318 1.02 0.318 1.02 0.643 2.07 0.804 2.47 1.77 4.87 2.74 7.28 2.78 7.47 4.88 16.6 4.88 24.6-2.27 0.081-4.54 0.139-6.81 0.188-1.9 0.0522-1.9 0.0522-3.83 0.105-3.36-0.293-3.36-0.293-5.04-1.56-1.6-2.12-1.69-3.18-1.69-5.81-0.00623-0.814-0.0125-1.63-0.0189-2.47 0.00921-0.875 0.0184-1.75 0.0279-2.65-4.99e-4 -0.901-9.97e-4 -1.8-0.00151-2.73 0.00234-1.9 0.0121-3.81 0.0286-5.71 0.0236-2.92 0.0206-5.84 0.0139-8.76 0.00558-1.85 0.0127-3.7 0.0215-5.54-9.11e-4 -0.877-0.00182-1.75-0.00276-2.66 0.0725-6.17 0.0725-6.17 2.3-8.4z" fill="#FDFDFE"/>
<path transform="translate(947,779)" d="m0 0h9c2.01 4.02 2.62 7.38 3.12 11.8 0.289 2.39 0.577 4.78 0.875 7.25 5.94 0.33 11.9 0.66 18 1 0.33-1.32 0.66-2.64 1-4 0.495 1.98 0.495 1.98 1 4 0.51-0.184 1.02-0.369 1.55-0.559 3.4-0.611 6.3-0.039 9.7 0.496 1.26 0.195 2.53 0.389 3.83 0.59 0.964 0.156 1.93 0.312 2.92 0.473v1c-2.31 0.33-4.62 0.66-7 1 2.97 0.33 5.94 0.66 9 1v1c-1.65 0.0219-1.65 0.0219-3.33 0.0442-4.09 0.058-8.17 0.135-12.3 0.218-1.77 0.0332-3.53 0.0613-5.3 0.084-2.54 0.0336-5.08 0.0859-7.63 0.142-0.789 0.00639-1.58 0.0128-2.39 0.0194-4.38 0.117-6.82 0.562-10.1 3.49-3.51-0.257-5.03-1.02-8-3-2.52-0.367-2.52-0.367-5.32-0.414-1.03-0.0387-2.06-0.0773-3.12-0.117-1.61-0.0464-1.61-0.0464-3.25-0.0938-1.08-0.0387-2.17-0.0773-3.28-0.117-2.68-0.0943-5.35-0.18-8.03-0.258v-1c7.26-0.33 14.5-0.66 22-1-0.99-0.66-1.98-1.32-3-2 0.99-0.33 1.98-0.66 3-1-0.217-0.941-0.433-1.88-0.656-2.85-0.278-1.25-0.557-2.49-0.844-3.77-0.418-1.84-0.418-1.84-0.844-3.73-0.597-3.32-0.78-6.29-0.656-9.65z" fill="#242323"/>
<path transform="translate(958,698)" d="m0 0c4.2 2.64 6.38 5.31 8 10 0.213 4.34-0.532 7.27-2.88 10.9-2.98 2.89-5.5 3.23-9.5 3.31-4.03-0.0655-6.51-0.5-9.62-3.25-2.62-4.06-3.7-7.19-3-12 3.4-6.8 9.15-11.7 17-9z" fill="#242323"/>
<path transform="translate(839,695)" d="m0 0c2.8 2.13 4.43 4.86 6 8 0.347 5.29 0.514 8.73-3 13-4.24 2.56-8.17 2.65-13 2-3.34-1.46-5.3-2.51-6.88-5.87-0.965-3.21-1.25-5.52-0.559-8.82 4.36-7.01 9.33-9.84 17.4-8.31z" fill="#242323"/>
<path transform="translate(738 1062)" d="m0 0c0.763 0.0825 1.53 0.165 2.31 0.25v2h2c0.33 0.66 0.66 1.32 1 2 1.07-0.681 2.14-1.36 3.25-2.06 3.42-1.96 3.42-1.96 6.12-1.75 1.62 0.812 1.62 0.812 2.62 1.81 0.0406 1.67 0.0427 3.33 0 5-0.922 0.273-0.922 0.273-1.86 0.551-0.808 0.251-1.62 0.503-2.45 0.762-0.801 0.244-1.6 0.487-2.43 0.738-2.41 1.01-3.63 1.92-5.26 3.95-0.908 2.73-1.18 4.62-1.32 7.45-0.0419 0.848-0.0838 1.7-0.127 2.57-0.0393 0.881-0.0786 1.76-0.119 2.67-0.0432 0.893-0.0864 1.79-0.131 2.71-0.106 2.2-0.208 4.4-0.307 6.61-3.38 0.125-3.38 0.125-7 0-3.35-3.35-2.3-7.73-2.32-12.3 0.00218-0.671 0.00435-1.34 0.00659-2.03 0.00315-2.04-0.0203-4.08-0.0457-6.12-6.45e-4 -1.29-0.00129-2.57-0.00195-3.9-0.00298-1.18-0.00596-2.36-0.00903-3.58 0.518-4.29 1.53-6.91 6.06-7.33z" fill="#1A325C"/>
<path transform="translate(571 1062)" d="m0 0c1.94 0.75 1.94 0.75 3.94 1.75v2c0.615-0.289 1.23-0.578 1.86-0.875 0.808-0.371 1.62-0.743 2.45-1.12 0.801-0.371 1.6-0.743 2.43-1.12 2.26-0.875 2.26-0.875 5.26-0.875 0.33 2.31 0.66 4.62 1 7-0.687 0.219-1.37 0.438-2.08 0.664-0.901 0.317-1.8 0.634-2.73 0.961-0.893 0.302-1.79 0.603-2.71 0.914-3.43 2.02-4.15 3.72-5.48 7.46-0.461 3.12-0.599 6.22-0.688 9.38-0.0342 0.831-0.0683 1.66-0.104 2.52-0.0819 2.03-0.147 4.07-0.209 6.11-2.33 0.0424-4.67 0.0409-7 0-2.67-2.67-1.23-10.3-1.24-14.2-0.0097-2.2-0.0407-4.41-0.0723-6.61-0.00653-1.4-0.0118-2.8-0.0156-4.2-0.00935-1.28-0.0187-2.55-0.0283-3.87 0.356-3.17 0.356-3.17 1.75-5.13 1.61-1.04 1.61-1.04 3.67-0.794z" fill="#1A335D"/>
<path transform="translate(848,740)" d="m0 0h2c0.66 1.98 1.32 3.96 2 6 3.96 0.33 7.92 0.66 12 1 0.495 2.48 0.495 2.48 1 5-0.759 0.0606-1.52 0.121-2.3 0.184-1.49 0.126-1.49 0.126-3.01 0.254-0.986 0.0812-1.97 0.162-2.99 0.246-2.79 0.235-2.79 0.235-5.7 1.32-0.33 14.5-0.66 29-1 44 14.9 0.495 14.9 0.495 30 1v1h-32c-1.18-2.35-1.16-3.83-1.21-6.45-0.0199-0.921-0.0399-1.84-0.0604-2.79-0.0167-0.996-0.0334-1.99-0.0506-3.02-0.0208-1.02-0.0416-2.04-0.063-3.09-0.0655-3.26-0.124-6.52-0.183-9.78-0.0432-2.21-0.0868-4.41-0.131-6.62-0.107-5.42-0.209-10.8-0.307-16.3-0.904 0.119-1.81 0.237-2.74 0.359-1.18 0.129-2.36 0.258-3.57 0.391-1.76 0.209-1.76 0.209-3.55 0.422-3.14-0.172-3.14-0.172-5.12-1.97-1.02-2.2-1.02-2.2-0.0195-5.2v2c0.66-0.33 1.32-0.66 2-1 2.21-0.0709 4.42-0.0842 6.62-0.0625 1.19 0.00902 2.38 0.018 3.6 0.0273 0.915 0.0116 1.83 0.0232 2.77 0.0352 0.66-2.31 1.32-4.62 2-7z" fill="#1A325A"/>
<path transform="translate(1074,725)" d="m0 0h2c3 5.62 3 5.62 3 9 2.79 1.16 5.58 2.19 8.45 3.15 1.21 0.405 2.43 0.81 3.68 1.23 1.22 0.4 2.44 0.799 3.7 1.21 3.23 1.44 4.43 2.41 6.18 5.41h-2v2c-4.11 0.0247-8.22 0.0428-12.3 0.0549-1.4 0.00504-2.8 0.0119-4.2 0.0205-2.01 0.0121-4.02 0.0173-6.02 0.0222-1.21 0.00524-2.42 0.0105-3.67 0.0159-2.78-0.114-2.78-0.114-3.78-1.11-0.662-5.16 0.989-8.91 3.03-13.5 0.98-2.48 1.53-4.84 1.97-7.46z" fill="#FDFDFE"/>
<path transform="translate(673,1070)" d="m0 0c2.5 1.81 2.5 1.81 4 5 0.856 5.44 0.978 9.53-2.12 14.2-3.41 2.15-4.92 2.55-8.88 1.81-2.81-1.5-2.81-1.5-5-4-1.47-6.09-1.17-10.4 2.12-15.9 3.16-1.89 6.37-1.84 9.88-1.12z" fill="#FDFDFE"/>
<path transform="translate(502 1070)" d="m0 0c3.13 0.114 3.99 0.339 6.62 2.25 2.23 4.74 2.38 9.05 1.5 14.2-2.06 3.25-2.06 3.25-5 5-3.6 0-6.08-0.612-9.38-2-2.66-3.27-2.82-6.87-2.62-11 1.97-5.16 3.19-7.8 8.88-8.44z" fill="#FDFDFE"/>
<path transform="translate(712,1070)" d="m0 0c3.23 3.23 4.9 5.7 5.25 10.2-0.279 4.19-0.701 6.4-3.25 9.75-2.72 1.11-5.09 1.36-8 1-2.86-1.76-4.5-3-6-6-0.375-5.63-0.111-9.09 3-14 3.13-1.56 5.56-1.36 9-1z" fill="#FDFDFE"/>
<path transform="translate(631,1070)" d="m0 0c2.44 1.75 2.44 1.75 4 5 0.789 5.46 1.29 10.2-2.06 14.8-3.88 1.57-5.95 1.42-9.94 0.188-3.4-2.88-3.94-4.49-4.44-8.94 0.199-3.89 1.34-6.75 3.44-10.1 3.13-1.56 5.56-1.36 9-1z" fill="#FDFDFE"/>
<path transform="translate(686,739)" d="m0 0h2c0.33 2.31 0.66 4.62 1 7 0.904 0.0606 1.81 0.121 2.74 0.184 1.77 0.126 1.77 0.126 3.57 0.254 1.17 0.0812 2.34 0.162 3.55 0.246 3.14 0.316 3.14 0.316 6.14 1.32-0.375 1.94-0.375 1.94-1 4-3.09 1.54-6.19 0.965-9.59 0.84-2.67-0.0233-2.67-0.0233-5.41 2.16-0.475 2.01-0.475 2.01-0.432 4.36-0.0198 0.901-0.0396 1.8-0.06 2.73-0.00639 0.974-0.0128 1.95-0.0194 2.95-0.018 0.996-0.0359 1.99-0.0544 3.02-0.0543 3.19-0.0881 6.38-0.121 9.57-0.0332 2.16-0.0676 4.32-0.104 6.48-0.0851 5.3-0.153 10.6-0.209 15.9-0.99-0.66-1.98-1.32-3-2-0.367-2.44-0.367-2.44-0.356-5.54-3e-3 -1.16-6e-3 -2.32-0.00909-3.51 0.0123-1.26 0.0247-2.51 0.0374-3.8 0.00187-1.28 0.00375-2.56 0.00568-3.89 0.0046-2.71 0.019-5.43 0.0412-8.14 0.0283-3.49 0.0392-6.97 0.0437-10.5 0.00515-3.32 0.0197-6.63 0.0344-9.95 0.00425-1.26 0.0085-2.51 0.0129-3.81 0.00961-1.15 0.0192-2.31 0.0291-3.5 0.00683-1.02 0.0137-2.04 0.0207-3.1 0.14-2.31 0.14-2.31 1.14-3.31z" fill="#1A335D"/>
<path transform="translate(938,713)" d="m0 0h4c0.413 0.949 0.825 1.9 1.25 2.88 1.83 3.26 2.29 4.07 5.75 5.12 1.18 0.144 2.35 0.289 3.56 0.438 3.44 0.562 3.44 0.562 5.38 2 1.06 1.56 1.06 1.56 1.06 3.56-0.99 0.33-1.98 0.66-3 1-0.619-0.33-1.24-0.66-1.88-1-2.86-1.34-4.15-0.98-7.12 0-1.88 2.04-1.88 2.04-3.31 4.56-0.512 0.826-1.02 1.65-1.55 2.5-0.375 0.638-0.75 1.28-1.14 1.93-2.31-0.33-4.62-0.66-7-1-1.86-5.58-1.25-12.7 0.82-18.2 0.992-1.62 0.992-1.62 3.18-3.81z" fill="#FCFDFE"/>
<path transform="translate(877,670)" d="m0 0c1.37 3.89 0.816 7.34 0.312 11.4-0.148 1.29-0.296 2.57-0.449 3.9-1.14 4.93-3.31 8.18-6.86 11.7-2.62-0.375-2.62-0.375-5-1 0.561-3.05 1.15-6.09 1.75-9.12 0.157-0.856 0.315-1.71 0.477-2.59 1.06-5.31 2.32-9.07 5.77-13.3 2.25-0.875 2.25-0.875 4-1z" fill="#242323"/>
<path transform="translate(849,752)" d="m0 0c2 2 2 2 2.2 3.91-0.0222 0.777-0.0444 1.55-0.0673 2.36-0.0202 0.881-0.0403 1.76-0.0611 2.67-0.0322 0.952-0.0644 1.9-0.0976 2.89-0.025 0.974-0.0501 1.95-0.0758 2.95-0.0823 3.12-0.179 6.24-0.276 9.35-0.0582 2.11-0.116 4.22-0.172 6.33-0.139 5.18-0.296 10.4-0.453 15.5 9.9 0.33 19.8 0.66 30 1v1h-32c-1.16-2.33-1.15-3.76-1.21-6.36-0.0299-1.35-0.0299-1.35-0.0604-2.73-0.0167-0.974-0.0334-1.95-0.0506-2.95-0.0208-0.996-0.0416-1.99-0.063-3.02-0.0655-3.19-0.124-6.38-0.183-9.57-0.0432-2.16-0.0868-4.32-0.131-6.48-0.107-5.3-0.209-10.6-0.307-15.9 0.99-0.33 1.98-0.66 3-1z" fill="#1A325C"/>
<path transform="translate(747,753)" d="m0 0h5c1.18 3.54 1.14 6.73 1.13 10.4 9.57e-4 0.729 0.00191 1.46 0.0029 2.21 6.8e-4 1.54-0.00116 3.09-0.00534 4.63-0.0053 2.34-7.44e-5 4.67 0.00635 7.01 0.00293 7.3-0.0924 14.5-1.14 21.7h-2c-2.05-3.08-2.26-3.79-2.32-7.29-0.0199-0.861-0.0397-1.72-0.0602-2.61-0.0173-1.39-0.0173-1.39-0.035-2.8-0.0194-0.95-0.0387-1.9-0.0587-2.88-0.0598-3.04-0.106-6.07-0.152-9.11-0.0382-2.06-0.0772-4.12-0.117-6.17-0.0961-5.05-0.18-10.1-0.258-15.1z" fill="#1A325C"/>
<path transform="translate(374,1059)" d="m0 0c3.64 3.16 5.11 6.13 6.75 10.6 0.428 1.15 0.856 2.29 1.3 3.48 0.953 2.9 0.953 2.9 0.953 4.9h-15c-0.33-0.66-0.66-1.32-1-2 0.645-1.63 1.3-3.25 2.03-4.85 1.13-2.5 2.14-5.04 3.16-7.59 0.344-0.865 0.688-1.73 1.04-2.62 0.254-0.641 0.508-1.28 0.77-1.94z" fill="#FDFDFE"/>
<path transform="translate(1078,798)" d="m0 0c9.57 0.33 19.1 0.66 29 1v2c1.32 0.33 2.64 0.66 4 1-8.24 5.5-22.3 3.1-32 3-0.33-2.31-0.66-4.62-1-7z" fill="#1C2F4F"/>
<path transform="translate(372,1049)" d="m0 0c2.3-0.27 2.3-0.27 5 0 1.77 1.86 1.77 1.86 3.25 4.31 0.5 0.801 1 1.6 1.52 2.43 1.23 2.26 1.23 2.26 2.23 5.26-3 1-3 1-4 1-0.99 0.33-1.98 0.66-3 1-0.66-0.99-1.32-1.98-2-3-1.32 2.64-2.64 5.28-4 8h-1v-6c-0.66 0.66-1.32 1.32-2 2-0.927-3.08-1.14-4.62-0.00391-7.68 0.476-0.87 0.951-1.74 1.44-2.64 0.473-0.883 0.946-1.77 1.43-2.68 0.373-0.664 0.745-1.33 1.13-2.01z" fill="#232426"/>
<path transform="translate(800,753)" d="m0 0h5v47h-2v-3h-2c-0.33-14.5-0.66-29-1-44z" fill="#1A335D"/>
<path transform="translate(1035,752)" d="m0 0c2.09 3.14 2.25 3.82 2.23 7.38-1.51e-4 0.881-3.02e-4 1.76-4.58e-4 2.67-0.0103 0.947-0.0206 1.89-0.0313 2.87-0.00283 0.972-0.00566 1.94-0.00858 2.95-0.0112 3.11-0.0363 6.22-0.0617 9.32-0.01 2.11-0.0192 4.21-0.0273 6.32-0.0221 5.16-0.0566 10.3-0.0977 15.5h-3c-1.15-2.31-1.15-3.7-1.21-6.27-0.0299-1.32-0.0299-1.32-0.0604-2.67-0.0167-0.952-0.0334-1.9-0.0506-2.89-0.0312-1.46-0.0312-1.46-0.063-2.95-0.0655-3.12-0.124-6.24-0.183-9.35-0.0432-2.11-0.0868-4.22-0.131-6.33-0.107-5.18-0.209-10.4-0.307-15.5 0.99-0.33 1.98-0.66 3-1z" fill="#1B345E"/>
<path transform="translate(779,674)" d="m0 0c0.66 0.33 1.32 0.66 2 1 0.312 2.71 0.513 5.34 0.625 8.06 0.0387 0.759 0.0773 1.52 0.117 2.3 0.0945 1.88 0.177 3.76 0.258 5.64 0.33-1.65 0.66-3.3 1-5h1c0.0289 3.96 0.0468 7.92 0.0625 11.9 0.00838 1.13 0.0168 2.26 0.0254 3.42 0.00322 1.08 0.00645 2.15 0.00977 3.26 0.00524 0.995 0.0105 1.99 0.0159 3.02-0.114 2.43-0.114 2.43-1.11 4.43h-3c-2.1-9.74-2.21-19.1-2-29h2c-0.33-2.97-0.66-5.94-1-9z" fill="#1C2F50"/>
<path transform="translate(920,753)" d="m0 0c1.32 0.33 2.64 0.66 4 1 0.33 14.9 0.66 29.7 1 45h-3c-1.15-2.31-1.15-3.7-1.21-6.27-0.0299-1.32-0.0299-1.32-0.0604-2.67-0.0167-0.952-0.0334-1.9-0.0506-2.89-0.0312-1.46-0.0312-1.46-0.063-2.95-0.0655-3.12-0.124-6.24-0.183-9.35-0.0432-2.11-0.0868-4.22-0.131-6.33-0.107-5.18-0.209-10.4-0.307-15.5z" fill="#1A335D"/>
<path transform="translate(750,737)" d="m0 0c3.62 2.83 3.13 3.79 4 9 4.95 0.33 9.9 0.66 15 1-0.33 0.66-0.66 1.32-1 2-2.94 0.414-2.94 0.414-6.56 0.625-1.2 0.0748-2.4 0.15-3.63 0.227-1.39 0.0735-1.39 0.0735-2.81 0.148v1c4.95 0.33 9.9 0.66 15 1v1h-17c-0.33 0.66-0.66 1.32-1 2v-2h-2c-0.33 0.66-0.66 1.32-1 2v-2c-1.32-0.33-2.64-0.66-4-1h4v-2h-5c1.32-0.66 2.64-1.32 4-2-0.0232-0.626-0.0464-1.25-0.0703-1.9-0.018-0.817-0.0361-1.63-0.0547-2.48-0.0232-0.812-0.0464-1.62-0.0703-2.46 0.195-2.16 0.195-2.16 2.2-4.16z" fill="#242323"/>
<path transform="translate(1113,754)" d="m0 0c0.99 0.33 1.98 0.66 3 1v44c-1.48 0.495-1.48 0.495-3 1v-46z" fill="#1D2D49"/>
<path transform="translate(1101,744)" d="m0 0c2.16 0.777 2.16 0.777 4.62 1.94 0.817 0.38 1.63 0.761 2.48 1.15 0.626 0.3 1.25 0.601 1.9 0.91v-3c1.32 0.33 2.64 0.66 4 1-1 3-1 3-3 4v2h-35c0.66-0.99 1.32-1.98 2-3 2.52-0.341 2.52-0.341 5.66-0.293 1.12 0.00967 2.24 0.0193 3.4 0.0293 1.18 0.0251 2.35 0.0503 3.56 0.0762 1.78 0.0203 1.78 0.0203 3.59 0.041 2.93 0.0354 5.86 0.0849 8.79 0.146v-2c-0.99 0.33-1.98 0.66-3 1-0.33-0.99-0.66-1.98-1-3 0.66-0.33 1.32-0.66 2-1z" fill="#1B3156"/>
<path transform="translate(686,739)" d="m0 0h2c0.33 2.31 0.66 4.62 1 7 0.904 0.0606 1.81 0.121 2.74 0.184 1.77 0.126 1.77 0.126 3.57 0.254 1.17 0.0812 2.34 0.162 3.55 0.246 3.14 0.316 3.14 0.316 6.14 1.32-0.375 1.94-0.375 1.94-1 4-2.46 1.23-4.01 1.07-6.75 1-3.87-0.0449-7.44 0.199-11.2 1-1.04-3.12-1.13-5.36-1.12-8.62-0.00258-0.982-0.00516-1.96-0.00781-2.98 0.133-2.4 0.133-2.4 1.13-3.4z" fill="#1C2F4F"/>
<path transform="translate(938,713)" d="m0 0h3c0.256 16.1 0.256 16.1-3 21-2.12 0.688-2.12 0.688-4 1-1.86-5.57-1.28-12.7 0.855-18.2 1.02-1.62 1.02-1.62 3.14-3.81z" fill="#232324"/>
<path transform="translate(849,801)" d="m0 0h34c0.495 0.99 0.495 0.99 1 2-0.843 0.0606-1.69 0.121-2.55 0.184-1.1 0.0838-2.19 0.168-3.32 0.254-1.09 0.0812-2.18 0.162-3.3 0.246-2.77 0.146-2.77 0.146-4.82 1.32-2.88 0.0719-5.74 0.0929-8.62 0.0625-0.802-0.00451-1.6-0.00902-2.43-0.0137-1.98-0.0118-3.96-0.0297-5.95-0.0488v-2h-4v-2z" fill="#1B3053"/>
<path transform="translate(749,790)" d="m0 0h1v9h2v-9h1c0.33 2.64 0.66 5.28 1 8 2.64 0.66 5.28 1.32 8 2v1c-2.64 0.33-5.28 0.66-8 1 6.6 0.33 13.2 0.66 20 1v1h-32v-1h7v-2c-0.99-0.33-1.98-0.66-3-1 0.309-0.536 0.619-1.07 0.938-1.62 1.24-2.77 1.65-5.38 2.06-8.38z" fill="#232323"/>
<path transform="translate(717,1064)" d="m0 0v2h-11v2h8l1 2c-5.94 0.495-5.94 0.495-12 1-0.33-0.99-0.66-1.98-1-3-0.99-0.33-1.98-0.66-3-1v-2c5.94-3.16 11.7-4.13 18-1z" fill="#232326"/>
<path transform="translate(827,729)" d="m0 0c0.66 0.33 1.32 0.66 2 1v2c0.99-0.33 1.98-0.66 3-1 0.404 6.46-0.408 11.1-3 17-2.48-0.99-2.48-0.99-5-2 0.99-5.61 1.98-11.2 3-17z" fill="#253A5C"/>
<path transform="translate(848,740)" d="m0 0h2c0.66 1.98 1.32 3.96 2 6 3.96 0.33 7.92 0.66 12 1 0.33 1.65 0.66 3.3 1 5h-13v-3c-0.825-0.454-1.65-0.908-2.5-1.38-0.825-0.536-1.65-1.07-2.5-1.62-0.375-2.62-0.375-2.62 0-5l1-1z" fill="#1A335D"/>
<path transform="translate(475,1063)" d="m0 0c1.65 0.33 3.3 0.66 5 1 1.15 3.55 1.09 4.8-0.438 8.31-0.773 1.33-0.773 1.33-1.56 2.69-0.66-0.66-1.32-1.32-2-2-0.99 0.33-1.98 0.66-3 1-1.35-6.4-1.35-6.4 0.438-9.44l1.56-1.56z" fill="#232428"/>
<path transform="translate(771,676)" d="m0 0c1.09 3.26 0.852 3.86 0 7-0.0782 1.51-0.108 3.03-0.0977 4.55 0.00322 0.844 0.00645 1.69 0.00977 2.56 0.00838 0.873 0.0168 1.75 0.0254 2.64 0.00677 1.33 0.00677 1.33 0.0137 2.69 0.0118 2.19 0.0282 4.37 0.0488 6.56-0.99-0.33-1.98-0.66-3-1-0.554-18-0.554-18 3-25z" fill="#3A4F74"/>
<path transform="translate(1010,692)" d="m0 0c1.32 1.65 2.64 3.3 4 5 0.66-0.33 1.32-0.66 2-1-0.33 4.62-0.66 9.24-1 14-0.33-0.99-0.66-1.98-1-3h-2v-2h-2c-0.194-1.98-0.38-3.96-0.562-5.94-0.104-1.1-0.209-2.2-0.316-3.34-0.04-0.898-0.0799-1.8-0.121-2.72l1-1z" fill="#213962"/>
<path transform="translate(1101,744)" d="m0 0c2.16 0.777 2.16 0.777 4.62 1.94 0.817 0.38 1.63 0.761 2.48 1.15 0.626 0.3 1.25 0.601 1.9 0.91v-3c1.32 0.33 2.64 0.66 4 1-1 3-1 3-3 4v2h-8v-2c-0.99 0.33-1.98 0.66-3 1v-2h3v-2c-0.99 0.33-1.98 0.66-3 1-0.33-0.99-0.66-1.98-1-3 0.66-0.33 1.32-0.66 2-1z" fill="#213960"/>
<path transform="translate(750,737)" d="m0 0c3.62 2.83 3.13 3.79 4 9 6.93 0.495 6.93 0.495 14 1v1c-2.96 0.0807-5.92 0.14-8.88 0.188-1.26 0.0377-1.26 0.0377-2.55 0.0762-0.806 0.00967-1.61 0.0193-2.44 0.0293-0.744 0.0157-1.49 0.0314-2.25 0.0476-0.62-0.112-1.24-0.225-1.88-0.341-2.3-3.45-2.34-4.95-2-9l2-2z" fill="#1A325C"/>
<path transform="translate(998,697)" d="m0 0h3v20c-0.99-0.33-1.98-0.66-3-1v-19z" fill="#1A335D"/>
<path transform="translate(896,712)" d="m0 0h4c-0.33 4.29-0.66 8.58-1 13h-4c-0.33-2.97-0.66-5.94-1-9h2v-4z" fill="#697A96"/>
<path transform="translate(779,674)" d="m0 0c0.66 0.33 1.32 0.66 2 1v23c-0.66 0.33-1.32 0.66-2 1-0.853-3.67-1.11-7.04-1.06-10.8 0.00902-0.976 0.018-1.95 0.0273-2.96 0.0116-0.736 0.0232-1.47 0.0352-2.23h2c-0.33-2.97-0.66-5.94-1-9z" fill="#2B4269"/>
<path transform="translate(685,798)" d="m0 0c2.63 0 5.08 0.198 7.69 0.5 0.808 0.0928 1.62 0.186 2.45 0.281 0.615 0.0722 1.23 0.144 1.86 0.219-1.49 1.49-1.49 1.49-3 3 2.31 0.33 4.62 0.66 7 1v1c-2.48 0.0269-4.96 0.0468-7.44 0.0625-0.707 0.00838-1.41 0.0168-2.14 0.0254-1.81 0.00865-3.61-0.0357-5.42-0.0879-1-1-1-1-1.06-3.56 0.0206-0.804 0.0412-1.61 0.0625-2.44z" fill="#232326"/>
<path transform="translate(521,1070)" d="m0 0c2.03 1.68 2.92 2.68 3.58 5.27 0.462 5.1 0.564 8.93-1.58 13.7h-1c-0.962-6.37-1.11-12.6-1-19z" fill="#FCFDFF"/>
<path transform="translate(649,1071)" d="m0 0h1v20c-3.27-4.36-3.39-5.37-3.31-10.6 0.00387-1.14 0.00773-2.27 0.0117-3.44 0.301-3 0.301-3 2.3-6z" fill="#FCFDFF"/>
<path transform="translate(763 749)" d="m0 0c1.06 0.00677 1.06 0.00677 2.14 0.0137 1.74 0.0118 3.49 0.0297 5.23 0.0488v3c-2.46 0.0538-4.92 0.0936-7.38 0.125-1.05 0.0251-1.05 0.0251-2.12 0.0508-1.84 0.0177-3.67-0.0727-5.51-0.176l-2-2c3.07-1.53 6.27-1.1 9.62-1.06z" fill="#1A335D"/>
<path transform="translate(728,1071)" d="m0 0c0.99 0.495 0.99 0.495 2 1 1.02 3.05 1.17 5.24 1.19 8.44 0.0142 0.947 0.0284 1.89 0.043 2.87-0.234 2.74-0.833 4.36-2.23 6.69h-1v-19z" fill="#FCFDFF"/>
<path transform="translate(1112,796)" d="m0 0c1.5 1 1.5 1 3 3 0.273 2.72 0.135 5.26 0 8-1.32-0.33-2.64-0.66-4-1v-2c-0.99-0.33-1.98-0.66-3-1 0.66-0.33 1.32-0.66 2-1-0.99-0.33-1.98-0.66-3-1v-2h4c0.33-0.99 0.66-1.98 1-3z" fill="#222429"/>
<path transform="translate(842 801)" d="m0 0c1.1 0.00902 2.19 0.018 3.32 0.0273 0.843 0.0116 1.69 0.0232 2.55 0.0352v2h-2v2h-10v-2c-0.66-0.33-1.32-0.66-2-1 2.76-1.38 5.05-1.1 8.12-1.06z" fill="#1C2F50"/>
<path transform="translate(1086,698)" d="m0 0c0.66 0.99 1.32 1.98 2 3 0.701 0.825 1.4 1.65 2.12 2.5 1.88 2.5 1.88 2.5 1.88 5.5-1.32-0.33-2.64-0.66-4-1v-2h-3c-3-4.22-3-4.22-3-7 1.32 0.33 2.64 0.66 4 1v-2z" fill="#FCFDFF"/>
<path transform="translate(699 799)" d="m0 0c0.749 0.00524 1.5 0.0105 2.27 0.0159 0.809 0.00322 1.62 0.00645 2.45 0.00977 0.85 0.00838 1.7 0.0168 2.58 0.0254 0.854 0.00451 1.71 0.00902 2.59 0.0137 2.12 0.0118 4.23 0.0298 6.35 0.0488-0.33 0.66-0.66 1.32-1 2-5.03 1.03-9.89 1.26-15 1-0.99-0.66-1.98-1.32-3-2 1-1 1-1 2.77-1.11z" fill="#22252D"/>
<path transform="translate(799,747)" d="m0 0c1.81 1.5 1.81 1.5 3 3-0.33 0.66-0.66 1.32-1 2h-11v-2c2.91-2.8 4.99-3.62 9-3z" fill="#1A325A"/>
<path transform="translate(992 749)" d="m0 0c1.1 0.00902 2.19 0.018 3.32 0.0273 0.843 0.0116 1.69 0.0232 2.55 0.0352v3h-14v-2c2.76-1.38 5.05-1.1 8.12-1.06z" fill="#1A335D"/>
<path transform="translate(825,715)" d="m0 0c6.48 3.01 6.48 3.01 8.44 6.75 0.186 0.742 0.371 1.49 0.562 2.25-3.59-1.33-6.85-2.81-10-5-0.33-0.99-0.66-1.98-1-3 0.66-0.33 1.32-0.66 2-1z" fill="#FCFDFF"/>
<path transform="translate(806,801)" d="m0 0h15v2c-3.63 0.66-7.26 1.32-11 2v-2h-4v-2z" fill="#1A3259"/>
<path transform="translate(484,1068)" d="m0 0c0.99 0.33 1.98 0.66 3 1-0.928 1.55-0.928 1.55-1.88 3.12-1.83 3.19-3.09 6.33-4.12 9.88-1.11-3.33-0.845-5.62 0-9h-2c0.66-1.32 1.32-2.64 2-4v2l3-3z" fill="#FCFDFF"/>
<path transform="translate(1034,738)" d="m0 0h2c0.33 2.64 0.66 5.28 1 8 2.97 0.33 5.94 0.66 9 1v1c-1.6 0.0542-3.21 0.0929-4.81 0.125-0.893 0.0232-1.79 0.0464-2.71 0.0703-2.48-0.195-2.48-0.195-5.48-2.2-0.25-3.56-0.25-3.56 0-7 0.33-0.33 0.66-0.66 1-1z" fill="#1A325B"/>
<path transform="translate(781,1066)" d="m0 0c2.06 0.438 2.06 0.438 4 1v4c-0.99-0.144-1.98-0.289-3-0.438-3.99-0.572-8-1.07-12-1.56v-1c0.71-0.0606 1.42-0.121 2.15-0.184 1.38-0.126 1.38-0.126 2.79-0.254 0.917-0.0812 1.83-0.162 2.78-0.246 2.25-0.0769 2.25-0.0769 3.29-1.32z" fill="#1E2C45"/>
<path transform="translate(1038,749)" d="m0 0h12c-0.99 1.49-0.99 1.49-2 3-2.38 0.293-2.38 0.293-5.12 0.188-0.91-0.0271-1.82-0.0541-2.76-0.082-0.699-0.0348-1.4-0.0696-2.12-0.105v-3z" fill="#1A335D"/>
<path transform="translate(759,1090)" d="m0 0c6.62-0.125 6.62-0.125 10 1v2c0.99 0.33 1.98 0.66 3 1-1.63-0.141-3.25-0.288-4.88-0.438-0.905-0.0812-1.81-0.162-2.74-0.246-2.38-0.316-2.38-0.316-4.38-1.32-0.33 0.66-0.66 1.32-1 2-0.33-0.66-0.66-1.32-1-2 0.33-0.66 0.66-1.32 1-2z" fill="#232326"/>
<path transform="translate(523,678)" d="m0 0c3.88 1.75 3.88 1.75 5 4 0.04 2 0.0435 4 0 6-1.98-1.65-3.96-3.3-6-5 0.33-1.65 0.66-3.3 1-5z" fill="#FCFDFF"/>
<path transform="translate(721,700)" d="m0 0c2.35 2.35 2.96 3.96 3.1 7.26-0.0116 0.801-0.0232 1.6-0.0352 2.43-0.00902 0.808-0.018 1.62-0.0273 2.45-0.0116 0.615-0.0232 1.23-0.0352 1.86-0.99-0.33-1.98-0.66-3-1v-13z" fill="#1A335D"/>
<path transform="translate(464,1076)" d="m0 0h2c1.12 5.75 1.12 5.75 0 8-1.32-0.33-2.64-0.66-4-1-0.33-1.65-0.66-3.3-1-5 0.99 0.495 0.99 0.495 2 1 0.33-0.99 0.66-1.98 1-3z" fill="#FCFDFF"/>
<path transform="translate(805,798)" d="m0 0c0.66 0.33 1.32 0.66 2 1 1.54 0.225 3.08 0.408 4.62 0.562 0.817 0.0838 1.63 0.168 2.48 0.254 0.626 0.0606 1.25 0.121 1.9 0.184v1h-10v2c1.32 0.33 2.64 0.66 4 1h-10c0.639-0.619 1.28-1.24 1.94-1.88 2.1-1.95 2.1-1.95 3.06-4.12z" fill="#242323"/>
<path transform="translate(978,802)" d="m0 0v1h-5v2h-6v-2c-1.32-0.33-2.64-0.66-4-1 5.38-0.849 9.65-1 15 0z" fill="#1C2F51"/>
<path transform="translate(798 801)" d="m0 0c1.89 0.0309 1.89 0.0309 3.81 0.0625v2h-2v2h-5v-2c-1.32-0.33-2.64-0.66-4-1 2.75-0.917 4.36-1.11 7.19-1.06z" fill="#1B3053"/>
<path transform="translate(847,746)" d="m0 0c2.31 0.66 4.62 1.32 7 2-0.99 1.49-0.99 1.49-2 3l2 2h-7v-7z" fill="#232325"/>
<path transform="translate(802,737)" d="m0 0h2v10c-0.99-0.33-1.98-0.66-3-1-0.0977-6.15-0.0977-6.15 0-8l1-1z" fill="#1A335D"/>
</svg>
